<svg xmlns="http://www.w3.org/2000/svg" xmlns:xlink="http://www.w3.org/1999/xlink" viewBox="0 0 2816.14 2791.38"><defs><style>.cls-1{isolation:isolate;}.cls-2{fill:url(#linear-gradient);}.cls-3{fill:#bdd0fb;}.cls-10,.cls-11,.cls-12,.cls-18,.cls-30,.cls-4{fill:#fff;}.cls-4{mix-blend-mode:soft-light;}.cls-5{fill:#91b3fa;}.cls-6{fill:url(#linear-gradient-2);}.cls-7{fill:url(#linear-gradient-3);}.cls-8{fill:url(#linear-gradient-4);}.cls-9{fill:#7d97f4;}.cls-10{opacity:0.58;}.cls-11{opacity:0.25;}.cls-13{fill:url(#linear-gradient-5);}.cls-14{fill:url(#linear-gradient-6);}.cls-15{fill:url(#linear-gradient-7);}.cls-16{fill:url(#linear-gradient-8);}.cls-17{fill:url(#linear-gradient-9);}.cls-18{opacity:0.78;}.cls-19{fill:url(#linear-gradient-10);}.cls-20{fill:url(#linear-gradient-11);}.cls-21{fill:url(#linear-gradient-12);}.cls-22{fill:url(#linear-gradient-13);}.cls-23{fill:url(#linear-gradient-14);}.cls-24{fill:url(#linear-gradient-15);}.cls-25{fill:url(#linear-gradient-16);}.cls-26{fill:url(#linear-gradient-17);}.cls-27{fill:url(#linear-gradient-18);}.cls-28{fill:url(#linear-gradient-19);}.cls-29{fill:url(#linear-gradient-20);}.cls-30{opacity:0.2;}.cls-31{fill:url(#linear-gradient-21);}.cls-32{fill:url(#linear-gradient-22);}.cls-33{fill:url(#linear-gradient-23);}.cls-34{fill:url(#linear-gradient-24);}.cls-35{fill:url(#linear-gradient-25);}.cls-36{fill:url(#linear-gradient-26);}.cls-37{fill:url(#linear-gradient-27);}.cls-38{fill:url(#linear-gradient-28);}.cls-39,.cls-40,.cls-41,.cls-42,.cls-43,.cls-44{opacity:0.63;}.cls-39{fill:url(#linear-gradient-29);}.cls-40{fill:url(#linear-gradient-30);}.cls-41{fill:url(#linear-gradient-31);}.cls-42{fill:url(#linear-gradient-32);}.cls-43{fill:url(#linear-gradient-33);}.cls-44{fill:url(#linear-gradient-34);}.cls-45{fill:url(#linear-gradient-35);}.cls-46{opacity:0.7;}.cls-47{fill:url(#linear-gradient-36);}.cls-48{fill:url(#linear-gradient-37);}.cls-49{fill:url(#linear-gradient-38);}.cls-50{fill:url(#linear-gradient-39);}.cls-51{fill:url(#linear-gradient-40);}.cls-52{fill:url(#linear-gradient-41);}.cls-53{fill:url(#linear-gradient-42);}.cls-54{fill:url(#linear-gradient-43);}.cls-55{fill:url(#linear-gradient-44);}.cls-56{fill:url(#linear-gradient-45);}.cls-57{fill:url(#linear-gradient-46);}.cls-58{fill:url(#linear-gradient-47);}.cls-59{fill:url(#linear-gradient-48);}.cls-60{fill:url(#linear-gradient-49);}.cls-61{fill:url(#linear-gradient-50);}.cls-62{fill:url(#linear-gradient-51);}.cls-63{fill:url(#linear-gradient-52);}.cls-64{fill:url(#linear-gradient-53);}.cls-65{fill:url(#linear-gradient-54);}.cls-66{fill:url(#linear-gradient-55);}.cls-67{fill:url(#linear-gradient-56);}.cls-68{fill:url(#linear-gradient-57);}.cls-69{fill:url(#linear-gradient-58);}.cls-70{fill:url(#linear-gradient-59);}</style><linearGradient id="linear-gradient" x1="3594.22" y1="4043.42" x2="1160.08" y2="1020.36" gradientUnits="userSpaceOnUse"><stop offset="0" stop-color="#dae3fe"/><stop offset="1" stop-color="#e9effd"/></linearGradient><linearGradient id="linear-gradient-2" x1="2051.54" y1="3064.4" x2="1916.27" y2="-939.79" gradientUnits="userSpaceOnUse"><stop offset="0" stop-color="#09005d"/><stop offset="1" stop-color="#1a0f91"/></linearGradient><linearGradient id="linear-gradient-3" x1="775.97" y1="2700.05" x2="2309.11" y2="3674.04" gradientUnits="userSpaceOnUse"><stop offset="0" stop-color="#a737d5"/><stop offset="1" stop-color="#ef497a"/></linearGradient><linearGradient id="linear-gradient-4" x1="904.66" y1="2497.48" x2="2437.8" y2="3471.48" xlink:href="#linear-gradient-3"/><linearGradient id="linear-gradient-5" x1="2263.52" y1="271.6" x2="1586.99" y2="1161.56" xlink:href="#linear-gradient-2"/><linearGradient id="linear-gradient-6" x1="2337.73" y1="328.01" x2="1661.2" y2="1217.97" xlink:href="#linear-gradient-2"/><linearGradient id="linear-gradient-7" x1="2252.47" y1="382.45" x2="1785.34" y2="1240.19" gradientUnits="userSpaceOnUse"><stop offset="0" stop-color="#4f52ff"/><stop offset="1" stop-color="#4042e2"/></linearGradient><linearGradient id="linear-gradient-8" x1="2884.97" y1="-2210.79" x2="2783.98" y2="-1822" gradientTransform="translate(1385.88 -1104.75) rotate(51.79)" gradientUnits="userSpaceOnUse"><stop offset="0" stop-color="#e1473d"/><stop offset="1" stop-color="#e9605a"/></linearGradient><linearGradient id="linear-gradient-9" x1="2884.97" y1="-2210.79" x2="2783.98" y2="-1822" gradientTransform="translate(401.73 -1029.79) rotate(29.82)" gradientUnits="userSpaceOnUse"><stop offset="0" stop-color="#ff928e"/><stop offset="1" stop-color="#fe7062"/></linearGradient><linearGradient id="linear-gradient-10" x1="2889.88" y1="-2209.52" x2="2788.89" y2="-1820.73" gradientTransform="translate(-1163.53 186.15) rotate(-15.18)" xlink:href="#linear-gradient-9"/><linearGradient id="linear-gradient-11" x1="3139.17" y1="-2144.77" x2="3038.18" y2="-1755.98" gradientTransform="translate(213.11 -1322.17) rotate(29.82)" xlink:href="#linear-gradient-8"/><linearGradient id="linear-gradient-12" x1="3139.17" y1="-2144.77" x2="3038.18" y2="-1755.98" gradientTransform="translate(213.11 -1322.17) rotate(29.82)" xlink:href="#linear-gradient-9"/><linearGradient id="linear-gradient-13" x1="3147.18" y1="-2142.68" x2="3046.19" y2="-1753.9" gradientTransform="translate(-1163.53 186.15) rotate(-15.18)" xlink:href="#linear-gradient-9"/><linearGradient id="linear-gradient-14" x1="3395.5" y1="-2078.19" x2="3294.52" y2="-1689.4" gradientTransform="translate(592.96 -1388.03) rotate(29.82)" xlink:href="#linear-gradient-8"/><linearGradient id="linear-gradient-15" x1="3395.5" y1="-2078.19" x2="3294.52" y2="-1689.4" gradientTransform="translate(592.96 -1388.03) rotate(29.82)" xlink:href="#linear-gradient-9"/><linearGradient id="linear-gradient-16" x1="3403.75" y1="-2076.05" x2="3302.76" y2="-1687.26" gradientTransform="translate(-1163.53 186.15) rotate(-15.18)" xlink:href="#linear-gradient-9"/><linearGradient id="linear-gradient-17" x1="3565.04" y1="-2034.15" x2="3464.06" y2="-1645.36" gradientTransform="matrix(1, -0.09, 0.09, 1, -954.97, -325.3)" xlink:href="#linear-gradient-8"/><linearGradient id="linear-gradient-18" x1="3565.05" y1="-2034.16" x2="3464.06" y2="-1645.37" gradientTransform="translate(-1610.46 -272.78) rotate(-15.18)" xlink:href="#linear-gradient-9"/><linearGradient id="linear-gradient-19" x1="3571.64" y1="-2032.43" x2="3470.65" y2="-1643.64" gradientTransform="translate(-1163.53 186.15) rotate(-15.18)" xlink:href="#linear-gradient-9"/><linearGradient id="linear-gradient-20" x1="446.93" y1="2533.14" x2="1656.23" y2="2533.14" xlink:href="#linear-gradient-2"/><linearGradient id="linear-gradient-21" x1="339.91" y1="2741.35" x2="1150.8" y2="1960.69" xlink:href="#linear-gradient-7"/><linearGradient id="linear-gradient-22" x1="473.8" y1="2880.42" x2="1284.68" y2="2099.75" xlink:href="#linear-gradient-7"/><linearGradient id="linear-gradient-23" x1="602.53" y1="3014.14" x2="1413.42" y2="2233.47" xlink:href="#linear-gradient-7"/><linearGradient id="linear-gradient-24" x1="1828.14" y1="1474.66" x2="1570.64" y2="2166.4" gradientTransform="matrix(1, 0, 0, 1, 0, 0)" xlink:href="#linear-gradient-9"/><linearGradient id="linear-gradient-25" x1="436.19" y1="2841.36" x2="1247.08" y2="2060.69" xlink:href="#linear-gradient-7"/><linearGradient id="linear-gradient-26" x1="570.07" y1="2980.42" x2="1380.96" y2="2199.76" xlink:href="#linear-gradient-7"/><linearGradient id="linear-gradient-27" x1="698.81" y1="3114.14" x2="1509.7" y2="2333.48" xlink:href="#linear-gradient-7"/><linearGradient id="linear-gradient-28" x1="832.7" y1="3253.21" x2="1643.58" y2="2472.55" xlink:href="#linear-gradient-7"/><linearGradient id="linear-gradient-29" x1="521.46" y1="2929.92" x2="1332.34" y2="2149.26" xlink:href="#linear-gradient-7"/><linearGradient id="linear-gradient-30" x1="655.34" y1="3068.99" x2="1466.23" y2="2288.33" xlink:href="#linear-gradient-7"/><linearGradient id="linear-gradient-31" x1="784.08" y1="3202.71" x2="1594.96" y2="2422.04" xlink:href="#linear-gradient-7"/><linearGradient id="linear-gradient-32" x1="615.06" y1="3027.15" x2="1425.95" y2="2246.48" xlink:href="#linear-gradient-7"/><linearGradient id="linear-gradient-33" x1="748.94" y1="3166.22" x2="1559.83" y2="2385.55" xlink:href="#linear-gradient-7"/><linearGradient id="linear-gradient-34" x1="877.68" y1="3299.94" x2="1688.57" y2="2519.27" xlink:href="#linear-gradient-7"/><linearGradient id="linear-gradient-35" x1="929.33" y1="2583.3" x2="1196.26" y2="2195.48" xlink:href="#linear-gradient-7"/><linearGradient id="linear-gradient-36" x1="-2748.05" y1="3243.64" x2="-2609.92" y2="3243.64" gradientTransform="matrix(-1, 0, 0, 1, 83.01, 0)" xlink:href="#linear-gradient-7"/><linearGradient id="linear-gradient-37" x1="-2748.06" y1="3216.57" x2="-2613.82" y2="3216.57" gradientTransform="matrix(-1, 0, 0, 1, 83.01, 0)" xlink:href="#linear-gradient-2"/><linearGradient id="linear-gradient-38" x1="-2735.3" y1="3178.77" x2="-2696.39" y2="3178.77" gradientTransform="matrix(-1, 0, 0, 1, 83.01, 0)" gradientUnits="userSpaceOnUse"><stop offset="0" stop-color="#febbba"/><stop offset="1" stop-color="#ff928e"/></linearGradient><linearGradient id="linear-gradient-39" x1="-3023.42" y1="3240.66" x2="-2970.49" y2="3240.66" gradientTransform="matrix(-1, 0, 0, 1, 83.01, 0)" xlink:href="#linear-gradient-7"/><linearGradient id="linear-gradient-40" x1="-3023.03" y1="3199.9" x2="-2945.34" y2="3199.9" gradientTransform="matrix(-1, 0, 0, 1, 83.01, 0)" xlink:href="#linear-gradient-2"/><linearGradient id="linear-gradient-41" x1="-2982.65" y1="3146.34" x2="-2936.15" y2="3146.34" xlink:href="#linear-gradient-38"/><linearGradient id="linear-gradient-42" x1="2259.35" y1="3858.64" x2="2966.27" y2="2754.49" xlink:href="#linear-gradient-7"/><linearGradient id="linear-gradient-43" x1="-332.86" y1="-6563.32" x2="-433.84" y2="-6174.53" gradientTransform="matrix(-1, 0, 0, 1, 83.01, 0)" xlink:href="#linear-gradient-9"/><linearGradient id="linear-gradient-44" x1="-2825.95" y1="2974.14" x2="-2803.67" y2="2929.57" gradientTransform="matrix(-1, 0, 0, 1, 83.01, 0)" xlink:href="#linear-gradient-7"/><linearGradient id="linear-gradient-45" x1="-2769.62" y1="2468.55" x2="-2935.14" y2="2615.13" xlink:href="#linear-gradient-38"/><linearGradient id="linear-gradient-46" x1="-474.4" y1="-6600.08" x2="-575.39" y2="-6211.29" gradientTransform="matrix(-1, 0, 0, 1, 83.01, 0)" xlink:href="#linear-gradient-9"/><linearGradient id="linear-gradient-47" x1="-168.25" y1="-6520.56" x2="-269.23" y2="-6131.77" gradientTransform="matrix(-1, 0, 0, 1, 83.01, 0)" xlink:href="#linear-gradient-9"/><linearGradient id="linear-gradient-48" x1="-2459.31" y1="2482.42" x2="-2328.95" y2="2482.42" xlink:href="#linear-gradient-38"/><linearGradient id="linear-gradient-49" x1="-2586.03" y1="2134.05" x2="-2587.45" y2="2377.49" xlink:href="#linear-gradient-38"/><linearGradient id="linear-gradient-50" x1="-2854.38" y1="3200.32" x2="-2974.22" y2="3358.84" gradientTransform="matrix(-0.99, -0.14, -0.14, 0.99, 222.07, -1480.94)" xlink:href="#linear-gradient-38"/><linearGradient id="linear-gradient-51" x1="-2945.9" y1="3238.56" x2="-2802.76" y2="3238.56" gradientTransform="matrix(-0.99, -0.14, -0.14, 0.99, 222.07, -1480.94)" xlink:href="#linear-gradient-2"/><linearGradient id="linear-gradient-52" x1="-3029.89" y1="3325.86" x2="-2933.78" y2="3227.25" gradientTransform="matrix(-0.99, -0.14, -0.14, 0.99, 222.07, -1480.94)" xlink:href="#linear-gradient-38"/><linearGradient id="linear-gradient-53" x1="-2342.8" y1="2467.11" x2="-2296.12" y2="2467.11" xlink:href="#linear-gradient-38"/><linearGradient id="linear-gradient-54" x1="-2091.54" y1="2243.24" x2="-3595.16" y2="3340.11" gradientTransform="matrix(-1, 0, 0, 1, 83.01, 0)" xlink:href="#linear-gradient-8"/><linearGradient id="linear-gradient-55" x1="1870.06" y1="2366.24" x2="2021.35" y2="2366.24" gradientTransform="matrix(1, 0, 0, 1, 0, 0)" xlink:href="#linear-gradient-8"/><linearGradient id="linear-gradient-56" x1="270.89" y1="-6406.51" x2="169.91" y2="-6017.72" xlink:href="#linear-gradient-38"/><linearGradient id="linear-gradient-57" x1="-2312.85" y1="2256.67" x2="-2974.64" y2="2936.8" xlink:href="#linear-gradient-38"/><linearGradient id="linear-gradient-58" x1="-2295.74" y1="2316.44" x2="-2957.53" y2="2996.57" xlink:href="#linear-gradient-38"/><linearGradient id="linear-gradient-59" x1="-2704.25" y1="2542.37" x2="-2869.78" y2="2688.95" xlink:href="#linear-gradient-38"/></defs><g class="cls-1"><g id="Illustration"><path class="cls-2" d="M2924.57,2851.23c-55.91,58.86-108.81,96.82-150.61,126.81-491.32,352.53-1072.68,249.77-1196.24,224.68-182.45-37.06-535.13-108.69-790.11-408.54C401.85,2340.52,461.92,1625.81,761.14,1154c54.73-86.3,343.85-565.28,931.47-642.09C2048.24,465.44,2462.78,559.2,2763,810.71,3393.13,1338.65,3348.27,2405.18,2924.57,2851.23Z" transform="translate(-446.93 -458.93)"/><path class="cls-3" d="M1172.91,1565.31c10.26,109.57,34.32,254.42,63.25,379.25h18.16c-37.4-150.63-71.82-356.93-61.69-594.72,10.23-239.81,67.89-531-39.63-670C1063.5,564,683.76,546.73,558.89,544.18c-15.6-.32-24.54,18-14.83,30.43C591.94,636,692.18,778.05,700.92,902.12c11.51,163.53,136.3,291.89,260.29,345.32S1152,1341.63,1172.91,1565.31Z" transform="translate(-446.93 -458.93)"/><path class="cls-4" d="M715,645.26A594.29,594.29,0,0,1,928,749.69a472.56,472.56,0,0,1,85.58,84.88c24.62,32.12,45.3,67.69,59.65,105.9l5.31,14.35c1.74,4.79,3,9.74,4.57,14.6s3,9.8,4.28,14.65l3.8,14.53q7.65,29.05,14.92,58.2,14.53,58.32,27.25,117.08c17,78.33,31.62,157.18,41.48,236.91a3.43,3.43,0,0,1-6.77,1.07l0-.11c-7-39.24-14.76-78.49-23.25-117.51q-12.46-58.6-26.27-116.89l-14-58.24L1090,1061q-7.29-29.05-15-58l-3.83-14.47c-1.27-4.83-2.79-9.41-4.18-14.12s-2.66-9.42-4.3-14l-5-13.78c-13.49-36.76-33.36-70.79-56.54-102.15-11.92-15.43-24.4-30.51-38.25-44.29L957.73,795l-5.3-5.05c-3.54-3.36-7-6.82-10.61-10.1-7.32-6.46-14.57-13-22.23-19.1-30.21-24.85-63.39-45.93-97.87-64.43a618.28,618.28,0,0,0-108-45.58l-.17-.05a2.82,2.82,0,0,1-1.83-3.5A2.76,2.76,0,0,1,715,645.26Z" transform="translate(-446.93 -458.93)"/><path class="cls-5" d="M1176.49,1713.71c65,97.12,56.61,151.46,58.61,197.48.35,8.17.79,19.72,1.72,33.37h17.74a401.77,401.77,0,0,1-7.11-56.15c-6.32-127.11-34.47-344.07-142.1-473.85s-225.48-141.62-374-23.63c-123.76,98.31-201,147.93-246.23,157.15-11.21,2.29-16.93,15.18-11.47,25.41,29,54.46,111.13,179.56,249,170.76C898.46,1733,1111.55,1616.6,1176.49,1713.71Z" transform="translate(-446.93 -458.93)"/><path class="cls-4" d="M781.67,1547.23a354.55,354.55,0,0,1,30.66-26.12c10.63-8.18,21.58-16,33-23.07,22.73-14.29,47-26.49,72.82-34.9A225.42,225.42,0,0,1,958,1454a167.5,167.5,0,0,1,41.32-.16c3.43.57,6.9.9,10.3,1.68s6.87,1.47,10.15,2.42l19.38,6.13,19,7.51,18.39,9a232.3,232.3,0,0,1,64,51c18.28,20.52,32.58,44.18,44.35,68.68l4.41,9.2c1.52,3,2.62,6.28,4,9.41,2.5,6.31,5.19,12.56,7.52,18.92l6.52,19.27c2.32,6.38,3.79,13,5.66,19.51,7.36,26.05,12.44,52.61,16.83,79.19a2.72,2.72,0,0,1-2.2,3.14,2.67,2.67,0,0,1-3-2l0-.08c-6.19-26.06-12.15-52.15-20.67-77.39-3.86-12.75-8.76-25.09-13.31-37.54-2.46-6.15-5.26-12.14-7.86-18.21-1.38-3-2.53-6.11-4.09-9l-4.53-8.77c-12-23.42-26.54-45.36-43.93-64.55a226,226,0,0,0-60.66-47.15l-17.34-8.37-18-7-18.45-5.72c-3.07-.88-6.07-1.47-9.11-2.23s-6.15-1-9.22-1.57a152.33,152.33,0,0,0-37.63-.09,212.36,212.36,0,0,0-37.46,7.74c-24.67,7.32-48.46,18.24-71.32,30.95-11.38,6.45-22.66,13.18-33.61,20.48s-21.7,15-32,23.12l-.06,0a2.74,2.74,0,0,1-3.9-.5A2.88,2.88,0,0,1,781.67,1547.23Z" transform="translate(-446.93 -458.93)"/><path class="cls-6" d="M1099.83,954.85a173,173,0,0,1,173-173H2743.61a152.38,152.38,0,0,1,152.18,144.63l108.56,2132.42A112.36,112.36,0,0,1,2894.17,3177l-1685.74,30.64A106.66,106.66,0,0,1,1099.83,3101Z" transform="translate(-446.93 -458.93)"/><path class="cls-7" d="M1454.8,3171.39h0L1266.13,3169c-63.08-.82-114.39-52.8-114.39-115.88V2768.29a4,4,0,1,1,8,0v284.78c0,58.69,47.75,107.06,106.44,107.82l188.62,2.44a4,4,0,0,1,0,8.06Z" transform="translate(-446.93 -458.93)"/><path class="cls-8" d="M1155.77,2684.1a4,4,0,0,1-4-4V2634a4,4,0,1,1,8,0v46.12A4,4,0,0,1,1155.77,2684.1Z" transform="translate(-446.93 -458.93)"/><path class="cls-9" d="M1220.33,814.72a50.23,50.23,0,0,1,57-50.11c200.85,27.24,891.54,111.48,1462.59,67.64a46.44,46.44,0,0,1,50,43.82L2903.76,3018a53.46,53.46,0,0,1-50.22,56.22c-240.17,14.21-1229.28,69.15-1582.08,32.2a42.36,42.36,0,0,1-37.9-41.91Z" transform="translate(-446.93 -458.93)"/><path class="cls-5" d="M1244,868.39a48.34,48.34,0,0,1,54.83-48.22c193.29,26.21,858,107.28,1407.51,65.1a44.7,44.7,0,0,1,48.15,42.16L2864,2988.7a51.45,51.45,0,0,1-48.33,54.1c-231.13,13.68-1183,66.55-1522.51,31a40.76,40.76,0,0,1-36.47-40.34Z" transform="translate(-446.93 -458.93)"/><rect class="cls-10" x="925.61" y="540.13" width="1312.79" height="176.72" rx="10.42"/><rect class="cls-10" x="922.7" y="1455.71" width="1337.26" height="88.36" rx="5.86"/><rect class="cls-10" x="922.7" y="1592.04" width="1337.26" height="88.36" rx="4.28"/><rect class="cls-10" x="923.81" y="2370.47" width="1365.2" height="88.36" rx="5.16"/><path class="cls-11" d="M2673.35,1822.08H1401.69a32.06,32.06,0,0,1-32.06-32.06V1313.87a32.06,32.06,0,0,1,32.06-32h1250.1a32,32,0,0,1,32,30.6l21.56,476.15A32.05,32.05,0,0,1,2673.35,1822.08Z" transform="translate(-446.93 -458.93)"/><path class="cls-12" d="M2674.09,1827.13H1402.43a37.16,37.16,0,0,1-37.11-37.11V1313.87a37.15,37.15,0,0,1,37.11-37.1h1250.1a37,37,0,0,1,37.07,35.43l21.56,476.14a37.1,37.1,0,0,1-37.07,38.79ZM1402.43,1286.87a27,27,0,0,0-27,27V1790a27,27,0,0,0,27,27H2674.09a27,27,0,0,0,27-28.23l-21.56-476.15a27,27,0,0,0-27-25.78Z" transform="translate(-446.93 -458.93)"/><path class="cls-11" d="M2693.67,2775.5H1411.41a40.66,40.66,0,0,1-40.67-40.66V2275.9a40.66,40.66,0,0,1,40.67-40.66H2675.88a40.65,40.65,0,0,1,40.63,39.08l17.8,458.94A40.67,40.67,0,0,1,2693.67,2775.5Z" transform="translate(-446.93 -458.93)"/><path class="cls-12" d="M2693.67,2780.55H1411.41a45.77,45.77,0,0,1-45.72-45.71V2275.9a45.76,45.76,0,0,1,45.72-45.71H2675.88a45.57,45.57,0,0,1,45.68,43.94l17.79,458.94a45.7,45.7,0,0,1-45.68,47.48ZM1411.41,2240.29a35.65,35.65,0,0,0-35.62,35.61v458.94a35.65,35.65,0,0,0,35.62,35.61H2693.67a35.61,35.61,0,0,0,35.59-37l-17.79-458.94a35.51,35.51,0,0,0-35.59-34.23Z" transform="translate(-446.93 -458.93)"/><rect class="cls-12" x="1765.14" y="1281.78" width="10.1" height="540.34" transform="translate(-472.47 -429.31) rotate(-0.95)"/><rect class="cls-12" x="2257.18" y="1281.72" width="10.1" height="540.46" transform="translate(-487.99 -397.31) rotate(-1.55)"/><rect class="cls-12" x="1770.14" y="1440.78" width="920.2" height="10.1" transform="translate(-467.4 -426.86) rotate(-0.82)"/><rect class="cls-12" x="1325.51" y="1192.24" width="925.73" height="10.1"/><rect class="cls-12" x="1498.91" y="2500.32" width="540.31" height="10.1" transform="translate(-1204.92 3784.38) rotate(-89.29)"/><rect class="cls-12" x="1328.87" y="1902.53" width="945.93" height="10.1"/><rect class="cls-12" x="1322.14" y="2027.09" width="956.03" height="10.1"/><rect class="cls-12" x="2245.43" y="2155.59" width="10.1" height="960.65" transform="translate(-860.22 4394.41) rotate(-89.29)"/><path class="cls-13" d="M2099.42,491.15c-53.13-37-99.33-36.23-131.85-26.63a64.86,64.86,0,0,0-46.07,68.19l14,153.08,166.88,14.81S2203.61,563.63,2099.42,491.15ZM2026,614.64A41.61,41.61,0,1,1,2067.64,573,41.61,41.61,0,0,1,2026,614.64Z" transform="translate(-446.93 -458.93)"/><path class="cls-5" d="M1952.2,621.39a4,4,0,0,1-4-3.66L1946,593.35a4,4,0,0,1,8-.73l2.23,24.38a4,4,0,0,1-3.64,4.38Zm-4.38-47.77a4,4,0,0,1-4-3.66l-1.7-18.51a61.91,61.91,0,0,1,43.9-65,124.65,124.65,0,0,1,61-2.5,4,4,0,0,1-1.62,7.88,117,117,0,0,0-57.09,2.34,53.85,53.85,0,0,0-38.16,56.51l1.69,18.51a4,4,0,0,1-3.64,4.38Z" transform="translate(-446.93 -458.93)"/><path class="cls-14" d="M1707.76,784.71v-77a47,47,0,0,1,48.57-46.94L2287,679a45.7,45.7,0,0,1,44,42.92l4.43,74Z" transform="translate(-446.93 -458.93)"/><path class="cls-5" d="M1905.62,689.81H1882.8a4,4,0,1,1,0-8h22.82a4,4,0,0,1,0,8Z" transform="translate(-446.93 -458.93)"/><path class="cls-5" d="M1736.48,760.54a4,4,0,0,1-4-4V725.38a43.67,43.67,0,0,1,43.62-43.62H1860a4,4,0,0,1,0,8h-83.9a35.61,35.61,0,0,0-35.57,35.57v31.14A4,4,0,0,1,1736.48,760.54Z" transform="translate(-446.93 -458.93)"/><path class="cls-15" d="M1491.56,804.14a50,50,0,0,1,49.94-47.6l927.88,0A68.59,68.59,0,0,1,2537,813.4l.78,4.54a58.89,58.89,0,0,1-58,68.94H1527.76a38.29,38.29,0,0,1-38.25-40.13Z" transform="translate(-446.93 -458.93)"/><circle class="cls-16" cx="1086.87" cy="1467.62" r="132.03" transform="translate(-1135.89 1434.83) rotate(-66.97)"/><circle class="cls-17" cx="1086.87" cy="1467.62" r="127.64" transform="translate(-1166.35 739.46) rotate(-45)"/><path class="cls-10" d="M972.52,1448.12a4.26,4.26,0,0,1-5.29-5,121.58,121.58,0,0,1,87.67-93.37,123.06,123.06,0,0,1,21.78-3.85,4.27,4.27,0,0,1,.72,8.5,115.2,115.2,0,0,0-20.26,3.59,113.09,113.09,0,0,0-81.55,86.84A4.26,4.26,0,0,1,972.52,1448.12Z" transform="translate(-446.93 -458.93)"/><circle class="cls-18" cx="1090.28" cy="1469.58" r="108.04" transform="translate(-1166.74 742.44) rotate(-45)"/><path class="cls-19" d="M1101.08,1549.86l-3.08-11.34c-12,2.74-24.41,3.12-33.7,1.73a6.8,6.8,0,0,1-5.73-6.76l0-11.35a6.86,6.86,0,0,1,7.8-6.77,79.5,79.5,0,0,0,31.07-1.78c11.39-3.09,18.83-9.26,16.69-17.17-1.94-7.14-9.66-9.61-26.64-9.56-24.26,0-43.15-5.5-48.54-25.38-4.87-18,4.54-35.23,26.32-45.07l-3.08-11.35a6.85,6.85,0,0,1,4.82-8.4l6.66-1.81a6.86,6.86,0,0,1,8.41,4.82l2.76,10.18a87.27,87.27,0,0,1,26.46-2.31,6.81,6.81,0,0,1,6.26,6.83v10.49a6.83,6.83,0,0,1-7.49,6.81,71.36,71.36,0,0,0-26,2.22c-13.52,3.66-15.86,10.31-14.5,15.33,1.68,6.18,10.94,8.22,30,8.86,27.14.73,40.39,8.32,45.47,27.05,4.67,17.18-3.89,36.08-27.55,46.64l3.44,12.7a6.84,6.84,0,0,1-4.81,8.4l-6.67,1.81A6.85,6.85,0,0,1,1101.08,1549.86Z" transform="translate(-446.93 -458.93)"/><circle class="cls-20" cx="1345.49" cy="1093.74" r="215.48" transform="translate(-826.24 812.82) rotate(-45)"/><circle class="cls-21" cx="1345.49" cy="1093.74" r="208.32" transform="translate(-826.24 812.82) rotate(-45)"/><path class="cls-10" d="M1158.09,1059.07a4.11,4.11,0,0,1-1.85,0,4,4,0,0,1-3.11-4.72,196.57,196.57,0,0,1,176-156.3,4,4,0,1,1,.68,8A188.58,188.58,0,0,0,1161,1056,4,4,0,0,1,1158.09,1059.07Z" transform="translate(-446.93 -458.93)"/><circle class="cls-18" cx="1351.06" cy="1096.94" r="176.31" transform="translate(-826.86 817.69) rotate(-45)"/><path class="cls-22" d="M1368.68,1228l-5-18.52c-19.5,4.47-39.83,5.09-55,2.83a11.1,11.1,0,0,1-9.35-11l0-18.52a11.18,11.18,0,0,1,12.73-11c15,2,32.8,2,50.7-2.91,18.59-5,30.75-15.11,27.24-28-3.16-11.65-15.75-15.68-43.47-15.6-39.59-.08-70.42-9-79.22-41.42-8-29.3,7.41-57.48,43-73.55l-5-18.52a11.16,11.16,0,0,1,7.86-13.71l10.87-3a11.18,11.18,0,0,1,13.72,7.86l4.51,16.62c18-4.13,31.88-4.6,43.18-3.77a11.11,11.11,0,0,1,10.22,11.13V1024a11.14,11.14,0,0,1-12.23,11.11,116.58,116.58,0,0,0-42.37,3.62c-22.06,6-25.88,16.83-23.66,25,2.74,10.08,17.85,13.42,48.92,14.46,44.29,1.18,65.91,13.58,74.2,44.14,7.61,28-6.34,58.88-45,76.13l5.62,20.71a11.19,11.19,0,0,1-7.86,13.72l-10.88,2.95A11.17,11.17,0,0,1,1368.68,1228Z" transform="translate(-446.93 -458.93)"/><circle class="cls-23" cx="1614.92" cy="1519.33" r="221.73" transform="translate(-1048.26 1127.99) rotate(-45)"/><circle class="cls-24" cx="1614.92" cy="1519.33" r="214.35" transform="translate(-1048.26 1127.99) rotate(-45)"/><path class="cls-10" d="M1422.07,1483.54a4,4,0,0,1-5-4.67,201,201,0,0,1,145-154.37,204.26,204.26,0,0,1,36-6.37,4,4,0,1,1,.68,8,196,196,0,0,0-34.59,6.13,193.05,193.05,0,0,0-139.22,148.25A4,4,0,0,1,1422.07,1483.54Z" transform="translate(-446.93 -458.93)"/><circle class="cls-18" cx="1620.65" cy="1522.62" r="181.42" transform="translate(-366.06 2668.04) rotate(-89.39)"/><path class="cls-25" d="M1638.78,1657.45l-5.16-19c-20.08,4.59-41,5.23-56.6,2.91a11.42,11.42,0,0,1-9.62-11.36l0-19.06a11.51,11.51,0,0,1,13.11-11.36c15.41,2,33.74,2,52.17-3,19.13-5.19,31.63-15.54,28-28.83-3.26-12-16.21-16.14-44.73-16.06-40.75-.08-72.47-9.23-81.52-42.62-8.18-30.15,7.62-59.15,44.2-75.69l-5.17-19a11.51,11.51,0,0,1,8.09-14.11l11.19-3a11.48,11.48,0,0,1,14.11,8.08l4.65,17.11c18.57-4.25,32.8-4.74,44.43-3.89a11.46,11.46,0,0,1,10.52,11.47v17.61a11.47,11.47,0,0,1-12.59,11.44,119.92,119.92,0,0,0-43.6,3.73c-22.69,6.16-26.62,17.32-24.34,25.75,2.82,10.37,18.37,13.81,50.33,14.88,45.58,1.21,67.83,14,76.36,45.42,7.83,28.85-6.53,60.59-46.27,78.33l5.79,21.32a11.5,11.5,0,0,1-8.09,14.11l-11.2,3A11.51,11.51,0,0,1,1638.78,1657.45Z" transform="translate(-446.93 -458.93)"/><circle class="cls-26" cx="1785.48" cy="1090.47" r="177.33" transform="translate(-612.79 -123.02) rotate(-10.27)"/><circle class="cls-27" cx="1338.55" cy="631.54" r="171.43"/><path class="cls-10" d="M1631.54,1063a4.25,4.25,0,0,1-2,.06,4.35,4.35,0,0,1-3.4-5.15A161.92,161.92,0,0,1,1742.9,933.53a164.15,164.15,0,0,1,29-5.14,4.37,4.37,0,1,1,.74,8.71,155,155,0,0,0-27.45,4.86,153.26,153.26,0,0,0-110.51,117.67A4.36,4.36,0,0,1,1631.54,1063Z" transform="translate(-446.93 -458.93)"/><circle class="cls-18" cx="1790.06" cy="1093.1" r="145.1" transform="translate(-695.57 1126.99) rotate(-45)"/><path class="cls-28" d="M1804.56,1200.93l-4.13-15.23c-16,3.67-32.78,4.18-45.26,2.33a9.15,9.15,0,0,1-7.7-9.09l0-15.24a9.21,9.21,0,0,1,10.48-9.09,106.82,106.82,0,0,0,41.73-2.4c15.3-4.14,25.3-12.43,22.41-23.06-2.6-9.59-13-12.9-35.77-12.84-32.59-.07-57.95-7.38-65.2-34.09-6.54-24.11,6.1-47.3,35.36-60.53l-4.14-15.23a9.2,9.2,0,0,1,6.47-11.29l9-2.43a9.2,9.2,0,0,1,11.29,6.47l3.71,13.68c14.86-3.4,26.23-3.79,35.53-3.11a9.16,9.16,0,0,1,8.42,9.17V1033a9.18,9.18,0,0,1-10.07,9.15,95.6,95.6,0,0,0-34.87,3c-18.15,4.93-21.29,13.85-19.46,20.59,2.25,8.3,14.68,11,40.25,11.91,36.45,1,54.25,11.17,61.07,36.32,6.26,23.07-5.23,48.46-37,62.65l4.63,17a9.2,9.2,0,0,1-6.47,11.28l-9,2.43A9.21,9.21,0,0,1,1804.56,1200.93Z" transform="translate(-446.93 -458.93)"/><path class="cls-29" d="M466.71,1892.32C460.34,2119.7,439.69,2904,449.55,3182c1.05,29.44,27.71,53.08,61,54,164.49,4.76,767.51,16.84,1036.56,6.85,56-2.08,100.6-42.27,101.76-91.91,5.59-238.67,17.93-909.93-11.39-1217.44-3.51-36.84-36.18-66.18-77.73-69.87C1380.57,1847.76,775,1809,542.52,1822.33,500.6,1824.74,467.75,1855.14,466.71,1892.32Z" transform="translate(-446.93 -458.93)"/><rect class="cls-5" x="67.02" y="1466.73" width="1054.47" height="326.51" rx="66.91"/><path class="cls-30" d="M1521.46,1991.47a44.1,44.1,0,0,0-31-13.44L629,1964.34a44.11,44.11,0,0,0-44.61,40l-17.9,191.12c-1.46,15.65,24.28,28.82,57.11,29.22l846.94,10.26c32.77.4,59.86-12.1,60.13-27.74l3.2-184.3A44.1,44.1,0,0,0,1521.46,1991.47Z" transform="translate(-446.93 -458.93)"/><path class="cls-31" d="M744.12,2447.55a61.56,61.56,0,0,1-61.56,61.55H607.62a61.55,61.55,0,0,1-61.55-61.55h0A61.56,61.56,0,0,1,607.62,2386h74.94a61.56,61.56,0,0,1,61.56,61.56Z" transform="translate(-446.93 -458.93)"/><path class="cls-32" d="M1022.45,2447.55a61.55,61.55,0,0,1-61.55,61.55H886a61.56,61.56,0,0,1-61.56-61.55h0A61.56,61.56,0,0,1,886,2386H960.9a61.56,61.56,0,0,1,61.55,61.56Z" transform="translate(-446.93 -458.93)"/><path class="cls-33" d="M1290.08,2447.55a61.55,61.55,0,0,1-61.55,61.55h-74.94a61.55,61.55,0,0,1-61.55-61.55h0a61.55,61.55,0,0,1,61.55-61.56h74.94a61.56,61.56,0,0,1,61.55,61.56Z" transform="translate(-446.93 -458.93)"/><path class="cls-34" d="M1561.38,2456.58a62.55,62.55,0,0,1-62.55,62.55H1426.4a62.54,62.54,0,0,1-62.55-62.55h0A62.55,62.55,0,0,1,1426.4,2394h72.43a62.56,62.56,0,0,1,62.55,62.55Z" transform="translate(-446.93 -458.93)"/><path class="cls-35" d="M744.12,2640.24a61.55,61.55,0,0,1-61.56,61.55H607.62a61.55,61.55,0,0,1-61.55-61.55h0a61.56,61.56,0,0,1,61.55-61.56h74.94a61.56,61.56,0,0,1,61.56,61.56Z" transform="translate(-446.93 -458.93)"/><path class="cls-36" d="M1022.45,2640.24a61.55,61.55,0,0,1-61.55,61.55H886a61.55,61.55,0,0,1-61.56-61.55h0A61.56,61.56,0,0,1,886,2578.68H960.9a61.56,61.56,0,0,1,61.55,61.56Z" transform="translate(-446.93 -458.93)"/><path class="cls-37" d="M1290.08,2640.24a61.55,61.55,0,0,1-61.55,61.55h-74.94a61.54,61.54,0,0,1-61.55-61.55h0a61.55,61.55,0,0,1,61.55-61.56h74.94a61.56,61.56,0,0,1,61.55,61.56Z" transform="translate(-446.93 -458.93)"/><path class="cls-38" d="M1568.42,2640.24a61.55,61.55,0,0,1-61.56,61.55h-74.93a61.55,61.55,0,0,1-61.56-61.55h0a61.56,61.56,0,0,1,61.56-61.56h74.93a61.56,61.56,0,0,1,61.56,61.56Z" transform="translate(-446.93 -458.93)"/><path class="cls-39" d="M744.12,2810.9a61.56,61.56,0,0,1-61.56,61.55H607.62a61.55,61.55,0,0,1-61.55-61.55h0a61.56,61.56,0,0,1,61.55-61.56h74.94a61.56,61.56,0,0,1,61.56,61.56Z" transform="translate(-446.93 -458.93)"/><path class="cls-40" d="M1022.45,2810.9a61.55,61.55,0,0,1-61.55,61.55H886a61.56,61.56,0,0,1-61.56-61.55h0A61.56,61.56,0,0,1,886,2749.34H960.9a61.56,61.56,0,0,1,61.55,61.56Z" transform="translate(-446.93 -458.93)"/><path class="cls-41" d="M1290.08,2810.9a61.55,61.55,0,0,1-61.55,61.55h-74.94A61.55,61.55,0,0,1,1092,2810.9h0a61.55,61.55,0,0,1,61.55-61.56h74.94a61.56,61.56,0,0,1,61.55,61.56Z" transform="translate(-446.93 -458.93)"/><path class="cls-42" d="M744.12,2998.24a61.56,61.56,0,0,1-61.56,61.55H607.62a61.55,61.55,0,0,1-61.55-61.55h0a61.56,61.56,0,0,1,61.55-61.56h74.94a61.56,61.56,0,0,1,61.56,61.56Z" transform="translate(-446.93 -458.93)"/><path class="cls-43" d="M1022.45,2998.24a61.55,61.55,0,0,1-61.55,61.55H886a61.56,61.56,0,0,1-61.56-61.55h0A61.56,61.56,0,0,1,886,2936.68H960.9a61.56,61.56,0,0,1,61.55,61.56Z" transform="translate(-446.93 -458.93)"/><path class="cls-44" d="M1290.08,2998.24a61.55,61.55,0,0,1-61.55,61.55h-74.94a61.55,61.55,0,0,1-61.55-61.55h0a61.55,61.55,0,0,1,61.55-61.56h74.94a61.56,61.56,0,0,1,61.55,61.56Z" transform="translate(-446.93 -458.93)"/><rect class="cls-45" x="934.15" y="2307.09" width="160.58" height="305.1" rx="77.92"/><g class="cls-46"><path class="cls-12" d="M1434.6,2019.34a13.38,13.38,0,0,1-13.38,13.38h-37.47a13.38,13.38,0,0,1-13.38-13.38h0a13.39,13.39,0,0,1,13.38-13.39h37.47a13.39,13.39,0,0,1,13.38,13.39Z" transform="translate(-446.93 -458.93)"/><path class="cls-12" d="M1434.6,2201.32a13.39,13.39,0,0,1-13.38,13.39h-37.47a13.39,13.39,0,0,1-13.38-13.39h0a13.38,13.38,0,0,1,13.38-13.38h37.47a13.38,13.38,0,0,1,13.38,13.38Z" transform="translate(-446.93 -458.93)"/><path class="cls-12" d="M1375.72,2094.27a13.38,13.38,0,0,1-13.38,13.38h0a13.38,13.38,0,0,1-13.38-13.38V2056.8a13.38,13.38,0,0,1,13.38-13.38h0a13.38,13.38,0,0,1,13.38,13.38Z" transform="translate(-446.93 -458.93)"/><path class="cls-12" d="M1375.72,2169.21a13.38,13.38,0,0,1-13.38,13.38h0a13.38,13.38,0,0,1-13.38-13.38v-37.47a13.38,13.38,0,0,1,13.38-13.38h0a13.38,13.38,0,0,1,13.38,13.38Z" transform="translate(-446.93 -458.93)"/><path class="cls-12" d="M1466.72,2094.27a13.38,13.38,0,0,1-13.38,13.38h0a13.38,13.38,0,0,1-13.38-13.38V2056.8a13.38,13.38,0,0,1,13.38-13.38h0a13.38,13.38,0,0,1,13.38,13.38Z" transform="translate(-446.93 -458.93)"/><path class="cls-12" d="M1466.72,2169.21a13.38,13.38,0,0,1-13.38,13.38h0a13.38,13.38,0,0,1-13.38-13.38v-37.47a13.38,13.38,0,0,1,13.38-13.38h0a13.38,13.38,0,0,1,13.38,13.38Z" transform="translate(-446.93 -458.93)"/></g><path class="cls-47" d="M2696.83,3237c23.66,2,64.73,5.36,97.11,6.79,19.46.86,30.67-1.05,37.12-3.63,0,.72,0,1.41-.06,2.05a6.7,6.7,0,0,1-6.36,6.33,1136.58,1136.58,0,0,1-127.16.12,4.77,4.77,0,0,1-3.88-7.16A39.89,39.89,0,0,1,2696.83,3237Z" transform="translate(-446.93 -458.93)"/><path class="cls-48" d="M2793.94,3243.75c-32.38-1.43-73.45-4.75-97.11-6.79,23.27-28.55,97.11-47.78,97.11-47.78h20.85c14.35,20.67,16.43,40.36,16.27,50.94C2824.61,3242.7,2813.4,3244.61,2793.94,3243.75Z" transform="translate(-446.93 -458.93)"/><path class="cls-49" d="M2818.31,3155.13l-2,38.62a8.81,8.81,0,0,1-7.53,8.29,34.21,34.21,0,0,1-15.66-1.29,10.45,10.45,0,0,1-7-8l-6.74-37.59Z" transform="translate(-446.93 -458.93)"/><path class="cls-50" d="M3089.19,3243.46c10.26-1.43,14.91-6.76,16.85-12.46l0,.15c1.51,6-2,12.24-9,15.21-8.46,3.58-17.71,4.19-24.89,3.89-7.7-.31-14.77-3.5-18.66-8.6l-.05-.08C3061.23,3245.4,3072.08,3245.85,3089.19,3243.46Z" transform="translate(-446.93 -458.93)"/><path class="cls-51" d="M3040.81,3154.88H3058c26.2-.54,42.65,54.72,48,76.12-1.94,5.7-6.59,11-16.85,12.46-17.11,2.39-28,1.94-35.69-1.89-14.16-18.62-21.17-45.9-24.55-61.82C3025.12,3161.64,3040.81,3154.88,3040.81,3154.88Z" transform="translate(-446.93 -458.93)"/><path class="cls-52" d="M3055.8,3119l9.55,38a10.31,10.31,0,0,1-5.36,11.68c-5.35,2.74-12.87,5.63-19.78,4.79a8.63,8.63,0,0,1-7-5.74l-14-40Z" transform="translate(-446.93 -458.93)"/><path class="cls-53" d="M3067.19,3130c-11.88,10.54-50.53,11.93-50.53,11.93-139.22-334.14-196.17-381.61-196.17-381.61,20.1,126.12,3.24,405.34,3.24,405.34-23,10.14-52.59,0-52.59,0a2152.41,2152.41,0,0,0-71.09-528.5c94.09-2.12,144.13-34.32,160.47-47.24C2939,2716.38,3067.19,3130,3067.19,3130Z" transform="translate(-446.93 -458.93)"/><path class="cls-54" d="M2836.62,2205.67c17.81,88.84,11.43,247.84,7.24,320.36-1.18,20.39,13,48.65,24.55,67.93a6,6,0,0,1-2.44,8.5c-19.26,9.9-84.49,40.57-160.1,44.39a10.77,10.77,0,0,1-10.85-8.06c-56.09-209.41-121.23-343.23-121.23-343.23C2645.71,2180.71,2836.62,2205.67,2836.62,2205.67Z" transform="translate(-446.93 -458.93)"/><path class="cls-55" d="M2811,2752.42a4.46,4.46,0,0,0,3.81-6.77c-.75-1.23-18.76-30.34-55.2-47.92a4.46,4.46,0,1,0-3.88,8c34,16.39,51.29,44.25,51.46,44.53A4.47,4.47,0,0,0,2811,2752.42Z" transform="translate(-446.93 -458.93)"/><path class="cls-56" d="M2948.34,2460.63c-5.72,41.39-22.63,86.53-56.44,134.48l-12.85-10.48s14.84-60.2,6.4-128.52C2906.31,2452,2930.94,2456.23,2948.34,2460.63Z" transform="translate(-446.93 -458.93)"/><path class="cls-57" d="M2816.73,2315.28l19.89-109.61s132.92,101.6,111.72,255c-17.4-4.4-42-8.59-62.89-4.52C2879.37,2406.89,2861.22,2353.46,2816.73,2315.28Z" transform="translate(-446.93 -458.93)"/><path class="cls-58" d="M2573.79,2295.56l51.3,110.49c-8.29,66.71-44.13,95.55-82.76,106.62a234.64,234.64,0,0,0-17.23-72C2574.46,2389.74,2573.79,2295.56,2573.79,2295.56Z" transform="translate(-446.93 -458.93)"/><path class="cls-59" d="M2525.1,2440.71a234.64,234.64,0,0,1,17.23,72c-103.09,40-130.36-37.57-130.36-37.57l19.05-3.36C2474,2476.27,2504.09,2462.4,2525.1,2440.71Z" transform="translate(-446.93 -458.93)"/><path class="cls-60" d="M2621.06,2159.15l24.77,91a17.71,17.71,0,0,0,23.68,11.79,357.91,357.91,0,0,0,35.7-16.31,23.86,23.86,0,0,0,8.42-34.3l-51.49-76.78Z" transform="translate(-446.93 -458.93)"/><path class="cls-61" d="M2566.87,2090c-.23,1.56,20.66,103.9,20.66,103.9l58.18-13.17-5.38-99.93S2570.65,2063.8,2566.87,2090Z" transform="translate(-446.93 -458.93)"/><path class="cls-62" d="M2627.24,2103.05l7,52.38a7.52,7.52,0,0,1,0,2c-.59,4.11-3.64,18.08-17.76,14.09-12.8-3.63-24.54-6.75-32.65-4.27a7.38,7.38,0,0,0-5.08,8.53c1.9,9.3,6.57,30.17,13.39,47.69a7.37,7.37,0,0,0,8.94,4.35c11-3.21,34.12-10.65,51.29-21a7.41,7.41,0,0,0,3.6-6.65c-.56-13.22-2.11-53.42-.81-64.69,1.22-10.58,14.21-16.92,19.85-19.19a7.26,7.26,0,0,0,4-4.05c2.61-6.55,6.22-21.69-12.87-27.9a7.39,7.39,0,0,1-4.68-9.56c2.83-7.87,4-19.88-10.75-26.49-15-6.73-26.21,1.27-32.27,7.77a7.38,7.38,0,0,1-9.41,1.11c-1.72-1.09-4-1.45-6.64.23a7.27,7.27,0,0,1-10.3-3.12c-3.59-7.38-10.92-15.28-25.61-12.76-26.07,4.46-29,33.35-22.15,50.28s34.87,10.48,48.92,2c10.67-6.49,24.52.31,30.55,3.94A7.36,7.36,0,0,1,2627.24,2103.05Z" transform="translate(-446.93 -458.93)"/><path class="cls-63" d="M2657.45,2154.61s-10.71-30,.3-37.37,27.32-3.53,23.73,18.21C2677,2162.5,2657.45,2154.61,2657.45,2154.61Z" transform="translate(-446.93 -458.93)"/><path class="cls-64" d="M2419.61,2489.29c-5.19,4.05-23-4.41-33.85-10.26a12.52,12.52,0,0,1-6.05-14.79c2.62-8.26,7-18.91,12.36-20.26C2401,2441.75,2441,2472.58,2419.61,2489.29Z" transform="translate(-446.93 -458.93)"/><path class="cls-65" d="M3235.51,2728.32,2198.86,2359.63,2144,2512l1036.29,379a48.34,48.34,0,0,0,58.37-21.13c12.11-20.81,23.69-53.31,24.39-102A41.41,41.41,0,0,0,3235.51,2728.32Z" transform="translate(-446.93 -458.93)"/><path class="cls-66" d="M1878.15,2320.25l143.2,17.59c-.15,19.7-6.6,45.2-28.45,74.45l-119.59-78.88C1867,2329.22,1870.61,2319.33,1878.15,2320.25Z" transform="translate(-446.93 -458.93)"/><path class="cls-67" d="M2198.86,2359.63C2205.42,2455.11,2144,2512,2144,2512l-151.12-99.69c21.85-29.25,28.3-54.75,28.45-74.45Z" transform="translate(-446.93 -458.93)"/><path class="cls-68" d="M3222.66,2775a3,3,0,0,0,1-5.92l-991.8-350.51a3,3,0,0,0-2,5.74l991.8,350.51A3,3,0,0,0,3222.66,2775Z" transform="translate(-446.93 -458.93)"/><path class="cls-69" d="M3205.55,2834.81a3,3,0,0,0,1-5.92l-991.8-350.51a3,3,0,0,0-2,5.74l991.8,350.51A3,3,0,0,0,3205.55,2834.81Z" transform="translate(-446.93 -458.93)"/><path class="cls-70" d="M2884.35,2582.8l-60-4.89-26,24s6.14,8.49,25.36,3.61,45.55-6.08,45.55-6.08,26.53,12,26.85-10.42Z" transform="translate(-446.93 -458.93)"/></g></g></svg>