<svg xmlns="http://www.w3.org/2000/svg" xmlns:xlink="http://www.w3.org/1999/xlink" viewBox="0 0 2798.39 2782.79"><defs><style>.cls-1{isolation:isolate;}.cls-2{fill:#f4f7fa;}.cls-3{fill:#26264f;}.cls-12,.cls-36,.cls-39,.cls-4,.cls-56,.cls-6{fill:#fff;}.cls-26,.cls-4,.cls-53,.cls-71{opacity:0.3;}.cls-39,.cls-4,.cls-56{mix-blend-mode:soft-light;}.cls-5{fill:#b7c0ce;}.cls-6{opacity:0.6;}.cls-7{fill:url(#linear-gradient);}.cls-8{fill:url(#linear-gradient-2);}.cls-9{fill:url(#linear-gradient-3);}.cls-10{fill:url(#linear-gradient-4);}.cls-11{fill:url(#linear-gradient-5);}.cls-12{opacity:0.82;}.cls-13{fill:url(#linear-gradient-6);}.cls-14{fill:url(#linear-gradient-7);}.cls-15{fill:url(#linear-gradient-8);}.cls-16{fill:url(#linear-gradient-9);}.cls-17{fill:url(#linear-gradient-10);}.cls-18{fill:url(#linear-gradient-11);}.cls-19{fill:url(#linear-gradient-12);}.cls-20{fill:url(#linear-gradient-13);}.cls-21{fill:url(#linear-gradient-14);}.cls-22{fill:url(#linear-gradient-15);}.cls-23{fill:url(#linear-gradient-16);}.cls-24{fill:url(#linear-gradient-17);}.cls-25{fill:url(#linear-gradient-18);}.cls-26,.cls-51,.cls-53,.cls-54,.cls-67,.cls-71,.cls-72{mix-blend-mode:multiply;}.cls-27{fill:url(#linear-gradient-19);}.cls-28{fill:url(#linear-gradient-20);}.cls-29{fill:url(#linear-gradient-21);}.cls-30{fill:url(#linear-gradient-22);}.cls-31{fill:url(#linear-gradient-23);}.cls-32{fill:url(#linear-gradient-24);}.cls-33{fill:url(#linear-gradient-25);}.cls-34{fill:url(#linear-gradient-26);}.cls-35{fill:url(#linear-gradient-27);}.cls-37{fill:#bfc8d6;}.cls-38{fill:#eff2f6;}.cls-39{opacity:0.48;}.cls-40{fill:#d8dee8;opacity:0.47;}.cls-41{fill:url(#linear-gradient-28);}.cls-42{fill:url(#linear-gradient-29);}.cls-43{fill:url(#linear-gradient-30);}.cls-44{fill:url(#linear-gradient-31);}.cls-45{fill:url(#linear-gradient-32);}.cls-46{fill:url(#linear-gradient-33);}.cls-47{fill:url(#linear-gradient-34);}.cls-48{fill:url(#linear-gradient-35);}.cls-49{fill:url(#linear-gradient-36);}.cls-50{fill:url(#linear-gradient-37);}.cls-51,.cls-67{opacity:0.4;}.cls-51{fill:url(#linear-gradient-38);}.cls-52{fill:url(#linear-gradient-39);}.cls-53{fill:url(#linear-gradient-40);}.cls-54,.cls-72{opacity:0.65;}.cls-54{fill:url(#linear-gradient-41);}.cls-55{fill:url(#linear-gradient-42);}.cls-56{opacity:0.26;}.cls-57{fill:url(#linear-gradient-43);}.cls-58{fill:url(#linear-gradient-44);}.cls-59{fill:url(#linear-gradient-45);}.cls-60{fill:url(#linear-gradient-46);}.cls-61{fill:url(#linear-gradient-47);}.cls-62{fill:url(#linear-gradient-48);}.cls-63{fill:url(#linear-gradient-49);}.cls-64{fill:url(#linear-gradient-50);}.cls-65{fill:url(#linear-gradient-51);}.cls-66{fill:url(#linear-gradient-52);}.cls-67{fill:url(#linear-gradient-53);}.cls-68{fill:url(#linear-gradient-54);}.cls-69{fill:url(#linear-gradient-55);}.cls-70{fill:url(#linear-gradient-56);}.cls-71{fill:url(#linear-gradient-57);}.cls-72{fill:url(#linear-gradient-58);}.cls-73{fill:url(#linear-gradient-59);}.cls-74{fill:url(#linear-gradient-60);}.cls-75{fill:url(#linear-gradient-61);}.cls-76{fill:url(#linear-gradient-62);}.cls-77{fill:url(#linear-gradient-63);}.cls-78{fill:url(#linear-gradient-64);}.cls-79{fill:url(#linear-gradient-65);}.cls-80{fill:url(#linear-gradient-66);}.cls-81{fill:url(#linear-gradient-67);}.cls-82{fill:url(#linear-gradient-68);}</style><linearGradient id="linear-gradient" x1="711.74" y1="2711.24" x2="971.88" y2="2798.68" gradientUnits="userSpaceOnUse"><stop offset="0" stop-color="#444b8c"/><stop offset="1" stop-color="#3e4177"/></linearGradient><linearGradient id="linear-gradient-2" x1="373.22" y1="2052.66" x2="268.65" y2="2271.31" gradientUnits="userSpaceOnUse"><stop offset="0" stop-color="#ffc444"/><stop offset="1" stop-color="#f36f56"/></linearGradient><linearGradient id="linear-gradient-3" x1="771.83" y1="2066.9" x2="992.88" y2="2066.9" gradientUnits="userSpaceOnUse"><stop offset="0" stop-color="#ff9085"/><stop offset="1" stop-color="#fb6fbb"/></linearGradient><linearGradient id="linear-gradient-4" x1="619.7" y1="2053.36" x2="838.12" y2="2053.36" gradientUnits="userSpaceOnUse"><stop offset="0" stop-color="#e38ddd"/><stop offset="1" stop-color="#9571f6"/></linearGradient><linearGradient id="linear-gradient-5" x1="500.45" y1="2186.01" x2="777.41" y2="2186.01" xlink:href="#linear-gradient-3"/><linearGradient id="linear-gradient-6" x1="2155.42" y1="1392.96" x2="2328.49" y2="1464.48" gradientUnits="userSpaceOnUse"><stop offset="0" stop-color="#444b8c"/><stop offset="1" stop-color="#26264f"/></linearGradient><linearGradient id="linear-gradient-7" x1="1335.92" y1="1181.04" x2="1335.92" y2="1759.09" gradientUnits="userSpaceOnUse"><stop offset="0" stop-color="#311944"/><stop offset="1" stop-color="#a03976"/></linearGradient><linearGradient id="linear-gradient-8" x1="1686.76" y1="817.91" x2="1682.2" y2="953.78" xlink:href="#linear-gradient-7"/><linearGradient id="linear-gradient-9" x1="2139.17" y1="1213.32" x2="2139.17" y2="1437.33" xlink:href="#linear-gradient-7"/><linearGradient id="linear-gradient-10" x1="2080.51" y1="1497.41" x2="1667.15" y2="2000.95" xlink:href="#linear-gradient-3"/><linearGradient id="linear-gradient-11" x1="1166.05" y1="1292.1" x2="1872.78" y2="1292.1" xlink:href="#linear-gradient-6"/><linearGradient id="linear-gradient-12" x1="1574.29" y1="2601.05" x2="1592.48" y2="2928.42" gradientTransform="matrix(-1, 0, 0, 1, 3427, 0)" xlink:href="#linear-gradient-6"/><linearGradient id="linear-gradient-13" x1="1593.36" y1="2706.04" x2="1620.59" y2="2706.04" gradientTransform="matrix(-1, 0, 0, 1, 3427, 0)" xlink:href="#linear-gradient-7"/><linearGradient id="linear-gradient-14" x1="1903.47" y1="2582.77" x2="1921.65" y2="2910.13" gradientTransform="matrix(-1, 0, 0, 1, 3427, 0)" xlink:href="#linear-gradient-6"/><linearGradient id="linear-gradient-15" x1="1869.89" y1="2689.25" x2="1924.05" y2="2689.25" gradientTransform="matrix(-1, 0, 0, 1, 3427, 0)" xlink:href="#linear-gradient-7"/><linearGradient id="linear-gradient-16" x1="1578.75" y1="2673.24" x2="1569.65" y2="2321.63" gradientTransform="matrix(-1, 0, 0, 1, 3427, 0)" xlink:href="#linear-gradient-6"/><linearGradient id="linear-gradient-17" x1="1780.92" y1="2668.01" x2="1771.82" y2="2316.4" gradientTransform="matrix(-1, 0, 0, 1, 3427, 0)" xlink:href="#linear-gradient-6"/><linearGradient id="linear-gradient-18" x1="2061.39" y1="1481.72" x2="1648.03" y2="1985.26" xlink:href="#linear-gradient-3"/><linearGradient id="linear-gradient-19" x1="1767.64" y1="1405.85" x2="1872.72" y2="2048.44" gradientTransform="matrix(-1, 0, 0, 1, 3427, 0)" xlink:href="#linear-gradient-3"/><linearGradient id="linear-gradient-20" x1="802.62" y1="1417.32" x2="781.4" y2="1473.9" gradientTransform="matrix(-0.86, 0.5, 0.5, 0.86, 1746.39, -259.51)" xlink:href="#linear-gradient-7"/><linearGradient id="linear-gradient-21" x1="795.39" y1="1345.71" x2="723.66" y2="1434.62" gradientTransform="matrix(-0.86, 0.5, 0.5, 0.86, 1746.39, -259.51)" xlink:href="#linear-gradient-7"/><linearGradient id="linear-gradient-22" x1="1802.01" y1="1268.79" x2="1388.65" y2="1772.33" xlink:href="#linear-gradient-3"/><linearGradient id="linear-gradient-23" x1="5392.31" y1="450.75" x2="5392.31" y2="852.55" gradientTransform="translate(-2221.62 4641.93) rotate(-45)" xlink:href="#linear-gradient-6"/><linearGradient id="linear-gradient-24" x1="5391.89" y1="694.47" x2="5391.89" y2="741.06" gradientTransform="translate(-3283.64 608.89)" xlink:href="#linear-gradient-6"/><linearGradient id="linear-gradient-25" x1="5391.89" y1="476.17" x2="5391.89" y2="942.02" gradientTransform="matrix(0.38, -0.92, 0.92, 0.38, -619.06, 6038.99)" xlink:href="#linear-gradient-6"/><linearGradient id="linear-gradient-26" x1="2133.57" y1="1272.61" x2="2129.02" y2="1408.48" xlink:href="#linear-gradient-7"/><linearGradient id="linear-gradient-27" x1="2130.68" y1="1328.38" x2="2158.37" y2="1339.83" xlink:href="#linear-gradient-7"/><linearGradient id="linear-gradient-28" x1="3109.17" y1="2815.31" x2="3125.23" y2="3019.76" gradientTransform="translate(-626.26)" gradientUnits="userSpaceOnUse"><stop offset="0" stop-color="#26264f"/><stop offset="1" stop-color="#444b8c"/></linearGradient><linearGradient id="linear-gradient-29" x1="2181.78" y1="2630.03" x2="2178.41" y2="2385.5" gradientTransform="translate(820.66 -36.2) rotate(9.85)" xlink:href="#linear-gradient-2"/><linearGradient id="linear-gradient-30" x1="2908.25" y1="2801.63" x2="2924.31" y2="3006.09" xlink:href="#linear-gradient-28"/><linearGradient id="linear-gradient-31" x1="1981.49" y1="2650.92" x2="1978.12" y2="2406.39" gradientTransform="translate(820.66 -36.2) rotate(9.85)" xlink:href="#linear-gradient-2"/><linearGradient id="linear-gradient-32" x1="2882.71" y1="2381.17" x2="2790.98" y2="2517.65" gradientUnits="userSpaceOnUse"><stop offset="0" stop-color="#893976"/><stop offset="1" stop-color="#311944"/></linearGradient><linearGradient id="linear-gradient-33" x1="2300.84" y1="2681.67" x2="2959.16" y2="2681.67" xlink:href="#linear-gradient-32"/><linearGradient id="linear-gradient-34" x1="2652.86" y1="2187.63" x2="2945.88" y2="2467.44" xlink:href="#linear-gradient-4"/><linearGradient id="linear-gradient-35" x1="2302.47" y1="2275.6" x2="2295.79" y2="2306.09" xlink:href="#linear-gradient-2"/><linearGradient id="linear-gradient-36" x1="5969.58" y1="1293.93" x2="6152.33" y2="1523.85" gradientTransform="translate(-2744.34 -923.84) rotate(14.93)" xlink:href="#linear-gradient-2"/><linearGradient id="linear-gradient-37" x1="5978.33" y1="1282.36" x2="6182.36" y2="1539.06" gradientTransform="translate(-2744.34 -923.84) rotate(14.93)" xlink:href="#linear-gradient-2"/><linearGradient id="linear-gradient-38" x1="2572.68" y1="2271.56" x2="2865.63" y2="2551.29" xlink:href="#linear-gradient-4"/><linearGradient id="linear-gradient-39" x1="2585.85" y1="2238.74" x2="2918.18" y2="2556.08" xlink:href="#linear-gradient-4"/><linearGradient id="linear-gradient-40" x1="2736.48" y1="3005.72" x2="3110.62" y2="3005.72" gradientTransform="translate(-74.33)" gradientUnits="userSpaceOnUse"><stop offset="0" stop-color="#aa80f9"/><stop offset="1" stop-color="#6165d7"/></linearGradient><linearGradient id="linear-gradient-41" x1="2863.23" y1="2832.81" x2="2912.74" y2="2832.81" xlink:href="#linear-gradient-40"/><linearGradient id="linear-gradient-42" x1="3133.74" y1="2780.17" x2="3042.98" y2="2661.9" gradientTransform="translate(-74.33)" gradientUnits="userSpaceOnUse"><stop offset="0" stop-color="#311944"/><stop offset="1" stop-color="#893976"/></linearGradient><linearGradient id="linear-gradient-43" x1="-169.24" y1="2700.63" x2="-127.8" y2="2737.49" gradientTransform="matrix(-0.99, -0.14, -0.14, 0.99, 1589.84, 206.94)" xlink:href="#linear-gradient-6"/><linearGradient id="linear-gradient-44" x1="-449.06" y1="3490.7" x2="-449.06" y2="3418.51" gradientTransform="matrix(-1, 0.05, 0.05, 1, 713.39, -528.79)" xlink:href="#linear-gradient-2"/><linearGradient id="linear-gradient-45" x1="-165.07" y1="2695.95" x2="-123.63" y2="2732.81" gradientTransform="matrix(-0.99, -0.14, -0.14, 0.99, 1589.84, 206.94)" xlink:href="#linear-gradient-6"/><linearGradient id="linear-gradient-46" x1="-22.1" y1="2929.81" x2="19.34" y2="2966.67" gradientTransform="matrix(-1, 0, 0, 1, 1486.99, 0)" xlink:href="#linear-gradient-6"/><linearGradient id="linear-gradient-47" x1="-180.29" y1="3654.06" x2="-180.29" y2="3581.86" gradientTransform="matrix(-0.98, 0.19, 0.19, 0.98, 586.77, -582.01)" xlink:href="#linear-gradient-2"/><linearGradient id="linear-gradient-48" x1="-17.94" y1="2925.13" x2="23.5" y2="2961.99" gradientTransform="matrix(-1, 0, 0, 1, 1486.99, 0)" xlink:href="#linear-gradient-6"/><linearGradient id="linear-gradient-49" x1="-2534.92" y1="2154.96" x2="-2560.25" y2="2270.6" gradientTransform="matrix(-1, 0, 0, 1, -1122.09, 0)" xlink:href="#linear-gradient-2"/><linearGradient id="linear-gradient-50" x1="-2306.04" y1="2145.01" x2="-2013.09" y2="2424.75" gradientTransform="matrix(-1, 0, 0, 1, -1122.09, 0)" xlink:href="#linear-gradient-2"/><linearGradient id="linear-gradient-51" x1="1205.79" y1="2539.97" x2="1388.53" y2="2769.88" gradientTransform="matrix(-0.97, 0.26, 0.26, 0.97, 1622.26, -923.84)" xlink:href="#linear-gradient-2"/><linearGradient id="linear-gradient-52" x1="1214.53" y1="2528.4" x2="1418.57" y2="2785.1" gradientTransform="matrix(-0.97, 0.26, 0.26, 0.97, 1622.26, -923.84)" xlink:href="#linear-gradient-2"/><linearGradient id="linear-gradient-53" x1="-2414.19" y1="2258.27" x2="-2121.23" y2="2538.01" gradientTransform="matrix(-1, 0, 0, 1, -1122.09, 0)" xlink:href="#linear-gradient-2"/><linearGradient id="linear-gradient-54" x1="-2370.4" y1="2212.41" x2="-2077.44" y2="2492.15" gradientTransform="matrix(-1, 0, 0, 1, -1122.09, 0)" xlink:href="#linear-gradient-2"/><linearGradient id="linear-gradient-55" x1="-2104.48" y1="2475.09" x2="-2344.62" y2="2646.62" gradientTransform="matrix(-1, 0, 0, 1, -1122.09, 0)" xlink:href="#linear-gradient-6"/><linearGradient id="linear-gradient-56" x1="-2622.4" y1="2685.13" x2="-2027.71" y2="2685.13" gradientTransform="matrix(-1, 0, 0, 1, -1122.09, 0)" xlink:href="#linear-gradient-6"/><linearGradient id="linear-gradient-57" x1="-2740.85" y1="3021.87" x2="-2366.72" y2="3021.87" gradientTransform="matrix(-1, 0, 0, 1, -1585.91, 0)" xlink:href="#linear-gradient-40"/><linearGradient id="linear-gradient-58" x1="-2614.1" y1="2848.96" x2="-2564.6" y2="2848.96" gradientTransform="matrix(-1, 0, 0, 1, -1585.91, 0)" xlink:href="#linear-gradient-40"/><linearGradient id="linear-gradient-59" x1="-2343.6" y1="2796.32" x2="-2434.36" y2="2678.05" gradientTransform="matrix(-1, 0, 0, 1, -1585.91, 0)" xlink:href="#linear-gradient-42"/><linearGradient id="linear-gradient-60" x1="2089.76" y1="956.71" x2="2054.01" y2="1297.74" xlink:href="#linear-gradient-4"/><linearGradient id="linear-gradient-61" x1="2191.2" y1="967.34" x2="2155.44" y2="1308.37" xlink:href="#linear-gradient-4"/><linearGradient id="linear-gradient-62" x1="2162.4" y1="964.32" x2="2126.64" y2="1305.35" xlink:href="#linear-gradient-4"/><linearGradient id="linear-gradient-63" x1="1704.43" y1="509.09" x2="1668.68" y2="850.12" xlink:href="#linear-gradient-4"/><linearGradient id="linear-gradient-64" x1="1792.2" y1="900.67" x2="1756.65" y2="1239.79" xlink:href="#linear-gradient-4"/><linearGradient id="linear-gradient-65" x1="1809.48" y1="948.71" x2="1782.4" y2="1206.99" xlink:href="#linear-gradient-4"/><linearGradient id="linear-gradient-66" x1="1998.08" y1="707.68" x2="1953.64" y2="1131.52" xlink:href="#linear-gradient-4"/><linearGradient id="linear-gradient-67" x1="2019.67" y1="767.72" x2="1985.83" y2="1090.52" xlink:href="#linear-gradient-4"/><linearGradient id="linear-gradient-68" x1="2003.11" y1="848.84" x2="2085.55" y2="848.84" xlink:href="#linear-gradient-4"/></defs><g class="cls-1"><g id="Illustration"><path class="cls-2" d="M3213,1643.61C3137.19,1147.14,2826.21,537.2,2211.83,473.36c0,0-466.47-56.74-926.3,29.26-272.91,51-512.21,203-663.64,421.31s-202,484.61-140.61,738.45c39.87,164.87,66.81,335.5,59.41,504.92-9.32,213.65-26.88,438.3,67.57,637.54,138.39,291.92,476.06,377.91,770.69,405.34,108.58,10.11,217.55,14.18,326.22,22.77,208.47,16.48,442.26-10.19,643.19-64.46C3372.32,2891.88,3288.89,2140.08,3213,1643.61Z" transform="translate(-455.8 -455)"/><polygon class="cls-3" points="2329.18 338.66 2329.09 338.75 2320.55 348.79 2212.48 475.72 2212.3 475.9 2067.17 340.72 2177.77 212.1 2288.19 304.41 2329.18 338.66"/><path class="cls-3" d="M2785,793.66l-.1.09a38.88,38.88,0,0,1-5.91,7.69,21.22,21.22,0,0,1-2.62,2.35c-17,14.73-44.76,14.63-72.52,2a143,143,0,0,1-40.34-28.14c-37-36.22-49.44-84.15-29.93-110.52a41.73,41.73,0,0,1,3.76-4.4c24.67-25.24,76.36-14.55,115.48,23.73a125.26,125.26,0,0,1,11.25,12.48C2790.8,731.46,2799.34,769.83,2785,793.66Z" transform="translate(-455.8 -455)"/><path class="cls-4" d="M2785,793.66l-.1.09a38.88,38.88,0,0,1-5.91,7.69,21.22,21.22,0,0,1-2.62,2.35L2668.28,930.72s1.32-76.37-12.66-88.09,3.19-10.51,32.93-27.58c5-2.91,10.13-5.91,15.29-9.29,17.92-11.54,34.9-26.27,40.15-46.35,2.25-8.15,2.44-17.26,0-27.39-4.31-17.92,6.38-27.77,20.07-33.11C2790.8,731.46,2799.34,769.83,2785,793.66Z" transform="translate(-455.8 -455)"/><ellipse class="cls-3" cx="2595.58" cy="863.38" rx="63.8" ry="99.15" transform="translate(-293.38 1658.26) rotate(-45.59)"/><ellipse class="cls-5" cx="2589.9" cy="865.51" rx="51.88" ry="76.61" transform="translate(-296.61 1654.84) rotate(-45.59)"/><path class="cls-3" d="M2764.5,769.58a6.84,6.84,0,0,1-6.84-6.84l0-146.94a21.39,21.39,0,0,0-.06-2.85c-1.6-1.23-2.24-1.15-3.36-.88l-173.49,41.21a5.35,5.35,0,0,0-4,5.7l1.85,73.61a6.85,6.85,0,0,1-6.66,7,6.77,6.77,0,0,1-7-6.67l-1.84-73.41A19,19,0,0,1,2577.62,640l173.48-41.21c5.57-1.33,10.41-.17,15.21,3.62,5.23,4.13,5.12,9.88,5,13.68l0,1.39V762.74A6.83,6.83,0,0,1,2764.5,769.58Z" transform="translate(-455.8 -455)"/><path class="cls-3" d="M2651.7,636.27a6.83,6.83,0,0,1-6.84-6.83V489.3a6.84,6.84,0,0,1,13.68,0V629.44A6.83,6.83,0,0,1,2651.7,636.27Z" transform="translate(-455.8 -455)"/><path class="cls-6" d="M2535.17,811.9l-1926.68,1617,1535.28,475L2644.63,919.13S2634,814.33,2535.17,811.9Z" transform="translate(-455.8 -455)"/><path class="cls-7" d="M856.58,2876.2c-1,9-5.42,16.27-11.19,18.54-14.41,5.67-33,7.81-54.85,7.84-22.13,0-41-2.22-55.54-8-5.59-2.21-9.89-9.11-11.08-17.79l-38.64-281.64H889.05Z" transform="translate(-455.8 -455)"/><ellipse class="cls-8" cx="331.36" cy="2140.17" rx="101.88" ry="15.67"/><path class="cls-9" d="M795.58,2594.09h22.24c152.74-108.74,180.62-186.49,174.23-239.25-5.65-46.63-36.81-63.25-83.19-179-27.65-69-41.47-103.53-40.39-141,2.35-81.92,54.24-92.6,82.39-199.64,11.21-42.66,29.8-113.35-3.17-182.21-35.38-73.86-113.41-125-133-110.89-13,9.39-.15,47.62,12.57,85.54,33.7,100.45,77.17,123.49,81.59,182.21,2.73,36.28-12.07,51.15-45.15,120.41-67,140.27-103.17,216.08-88.72,290,19.76,101,117.3,111.68,123.58,199.64C903.68,2491.35,844.12,2553.85,795.58,2594.09Z" transform="translate(-455.8 -455)"/><path class="cls-10" d="M805.09,2060.15c12.64-90.47,42.43-113,30.1-188.55-7.6-46.55-26.81-86.29-58.62-152.1-30.38-62.84-44.87-76.4-63.38-131.51-17.22-51.29-16.45-74.66-26.93-76-21.2-2.81-67.4,87.14-66.54,183.79.82,93.89,45.29,107.61,58.62,204.39,16.92,122.92-50.1,134.91-39.61,255.09,9.59,109.94,68.14,127.68,101.4,278.44A687,687,0,0,1,756,2594.85h22.19c45.29-92.29,56.71-171.69,58.62-226.16C841.65,2229.53,786.07,2196.25,805.09,2060.15Z" transform="translate(-455.8 -455)"/><path class="cls-11" d="M752.8,2377C708,2278.12,621.06,2267.28,619.72,2179c-.65-42,16.58-56.85,31.89-171.12,10.13-75.7,7.18-103.55,0-128.35-18.37-63.43-64.28-106.45-69.92-103-5.48,3.38,35.07,45.74,34.86,104.57-.27,72.73-61.15,90.6-95.07,171.11C486.2,2136,495,2253.07,550,2326.33c52.25,69.65,116.4,60,158.44,137.84,25,46.25,26.52,94.42,23.77,128.34l33.27,3.16C789.48,2491.41,773.12,2421.89,752.8,2377Z" transform="translate(-455.8 -455)"/><polygon class="cls-3" points="388.6 338.66 388.7 338.75 397.23 348.79 505.31 475.72 505.49 475.9 650.62 340.72 540.01 212.1 429.6 304.41 388.6 338.66"/><path class="cls-3" d="M844.4,793.66l.1.09a38.88,38.88,0,0,0,5.91,7.69,21.22,21.22,0,0,0,2.62,2.35c17,14.73,44.76,14.63,72.52,2a143,143,0,0,0,40.34-28.14c37-36.22,49.44-84.15,29.93-110.52a42.86,42.86,0,0,0-3.75-4.4c-24.68-25.24-76.37-14.55-115.49,23.73a126.51,126.51,0,0,0-11.25,12.48C838.59,731.46,830.05,769.83,844.4,793.66Z" transform="translate(-455.8 -455)"/><path class="cls-4" d="M844.4,793.66l.1.09a38.88,38.88,0,0,0,5.91,7.69,21.22,21.22,0,0,0,2.62,2.35L961.11,930.72s-1.31-76.37,12.66-88.09-3.19-10.51-32.92-27.58c-5-2.91-10.14-5.91-15.3-9.29-17.91-11.54-34.9-26.27-40.15-46.35-2.25-8.15-2.44-17.26,0-27.39,4.32-17.92-6.38-27.77-20.07-33.11C838.59,731.46,830.05,769.83,844.4,793.66Z" transform="translate(-455.8 -455)"/><ellipse class="cls-3" cx="1033.81" cy="863.38" rx="99.15" ry="63.8" transform="translate(-764.68 515.12) rotate(-44.41)"/><ellipse class="cls-12" cx="1039.49" cy="865.51" rx="76.61" ry="51.88" transform="translate(-764.54 519.71) rotate(-44.41)"/><path class="cls-3" d="M864,769.58a6.84,6.84,0,0,1-6.84-6.84V617.08c0-4.13,0-10.37,5.46-14.69,4.77-3.77,9.82-5,15.43-3.62L1051.67,640a19.1,19.1,0,0,1,14.53,19.74L1064,733a6.84,6.84,0,0,1-6.83,6.63h-.21a6.84,6.84,0,0,1-6.62-7.05l2.24-73.41a5.43,5.43,0,0,0-4-5.86l-173.6-41.21c-1.31-.32-2.17-.24-3.79,1a15.68,15.68,0,0,0-.27,4V762.74A6.83,6.83,0,0,1,864,769.58Z" transform="translate(-455.8 -455)"/><path class="cls-3" d="M976.83,636.27a6.83,6.83,0,0,1-6.84-6.83V489.3a6.84,6.84,0,1,1,13.67,0V629.44A6.83,6.83,0,0,1,976.83,636.27Z" transform="translate(-455.8 -455)"/><path class="cls-12" d="M1094.22,811.9l1926.68,1617L1485.62,2904,984.76,919.13S995.4,814.33,1094.22,811.9Z" transform="translate(-455.8 -455)"/><path class="cls-13" d="M2312.45,1501.06h0c-27.7-3.42-50.52-12.78-62.61-32.63-7.28-12-8.87-27.47-10.41-42.15-2.31-22-4.49-43-24.43-53.19-11.69-6-27.76-10.3-44.09-11.68a1.74,1.74,0,0,1,.29-3.46c16.76,1.41,33.29,5.76,45.36,12,21.59,11.06,24,33.76,26.27,55.71,1.5,14.3,3,29.09,9.93,40.4,11.46,18.83,33.24,29.89,59.75,30.35.95,0,1.7,1.43,1.68,2.38S2313.38,1501.06,2312.45,1501.06Z" transform="translate(-455.8 -455)"/><path class="cls-14" d="M1372.05,1553.61s-7.7-17.95-10.69-24.35-28.84-42.73-29-29.91a58.29,58.29,0,0,0,4.91,23.5s-26.91-38.88-35.46-30.13,2.56,54.27,20.72,60.89,28.42,22.64,28.42,22.64S1378.45,1577.54,1372.05,1553.61Z" transform="translate(-455.8 -455)"/><polygon class="cls-15" points="1694.33 946.93 1691.13 910.28 1672.82 907.29 1670.53 946.93 1694.33 946.93"/><path class="cls-16" d="M2128.51,1364.26s-8.82-22.19-2.18-25.73,28.38-7.9,28.16-2.06-7.45,30-7.45,30Z" transform="translate(-455.8 -455)"/><path class="cls-17" d="M2124.2,1380.52S2118,1500,2093.51,1499.93s-95.42-70.22-150.24-74-22.84,187.61-22.84,187.61,105.81,82.8,203.77,60.12,74.21-230,26.4-286.43Z" transform="translate(-455.8 -455)"/><path class="cls-18" d="M1860.41,1375.88c4.28-7.32,16-27.37,11.27-50.73-4.83-24-25.81-45.88-50.73-50.73-21.75-4.24-39.31,5.94-58.24,16.91-46.66,27-53.23,60.41-67.64,58.24-27.63-4.15-.44-124.74-58.25-169.1-39.9-30.61-78,7.59-161.58-3.75-124.74-16.93-153-117.28-216.07-101.46-67.64,17-115.12,152.25-82.67,259.28,27.49,90.71,104.76,136,133.4,150.31,56.47,28.32,104.78,27.23,184.13,24.43C1680,1502.71,1823.18,1439.58,1860.41,1375.88Z" transform="translate(-455.8 -455)"/><path class="cls-19" d="M1807.15,2717.46s-2.27,18.1-.74,24.16,54.14,10.44,72,8.34-10.64-20.35-22-23.78S1807.15,2717.46,1807.15,2717.46Z" transform="translate(-455.8 -455)"/><path class="cls-20" d="M1833.64,2687.27l-5.55,36.31s-14.14,6.35-20.94.07l-.74-38Z" transform="translate(-455.8 -455)"/><path class="cls-21" d="M1537,2685.65s11.16,8.28,8.19,18.21-29,49.67-47.59,60.95-12.75-12.22-7.35-26.86,19.21-46.89,24.6-52.3S1537,2685.65,1537,2685.65Z" transform="translate(-455.8 -455)"/><path class="cls-22" d="M1557.11,2645.76c-5.4,15-10.59,27.41-14.65,36.53-9,20.19-13.89,27.76-19.45,34.32-4.85,5.72-16.33,17.92-19.41,15.89s5.26-16.89,21.45-60.34c2.35-6.31,9.77-26.4,9.77-26.4h22.29Z" transform="translate(-455.8 -455)"/><path class="cls-23" d="M1943.83,2017.19a940.36,940.36,0,0,1,2,167.72c-7.2,92.8-25.76,151.52-49,250.46-14.22,60.47-33.38,149.47-50.72,260.77a49,49,0,0,1-31.1,6.1,47.24,47.24,0,0,1-18.69-7.1c-45.49-139-32.06-225.18-10.1-278.86,9.36-22.88,20.71-40.93,26.77-76.1,8-46.53-1.9-72.55-16-180.33-10.09-76.83-8.34-88.7-1.63-100.22C1822.13,2013.56,1904.18,2014.46,1943.83,2017.19Z" transform="translate(-455.8 -455)"/><path class="cls-24" d="M1787.22,2033.36c-27.87,143.94-55.23,219.54-75.93,262.3a719.12,719.12,0,0,0-38.24,93.34c-14.26,43.18-20.2,74.94-23.24,88.92-9.61,44.12-33.36,108.54-97.26,193-.8.47-11.69,6.63-22.11,1.13a21.32,21.32,0,0,1-8.94-9.28c8.35-80.78,17.94-148.67,26.26-201.06,1.75-11,9.44-59.07,21.51-122.58,4.72-24.86,11.63-61.28,19.92-98.69,10.32-46.59,26.14-110,50.52-185.9Z" transform="translate(-455.8 -455)"/><path class="cls-25" d="M2024,1481.72c-5.81-37.07-65-56.28-95.66-66.25-65.52-21.28-122.41-9.08-147.48-3.77-92.17,19.53-149.58,74.84-171.19,98.09,17.69,11.52,66.52,46.67,90.7,113.36,7.52,20.75,29.75,91.69-2,158.13-18.31,38.28-50.71,67-75.32,88.86-36.91,32.74-56,37.77-68.4,67.11-13.47,31.94.11,47.52-16.63,69.39-18,23.48-39,12.56-69.49,36.32-31.2,24.32-20.1,44.34-48.5,71.23-41.26,39.06-96,26.37-98.51,43.95-2.19,15.12,36.69,35.63,69.72,44,65.41,16.47,122.46-11.18,139.43-19.7,47-23.6,38.86-38.88,74.67-56.87,60-30.12,101,3.4,237.53,6.85,74,1.87,111.36,2.29,131.85-22.73,18.71-22.86,8.88-47.93-2.35-156-5.34-51.43-7.27-103.16-11.21-154.71-9.39-122.84-11.11-151.31-5.51-169.29.65-2.08,1.82-4.54,3.92-9.54C2000.49,1522.25,2028.19,1508.74,2024,1481.72Z" transform="translate(-455.8 -455)"/><g class="cls-26"><path class="cls-27" d="M1420,2114.19c28.4-26.89,17.3-46.91,48.5-71.23,30.46-23.75,51.52-12.84,69.49-36.32,16.74-21.87,3.16-37.45,16.63-69.39,12.38-29.34,31.49-34.37,68.4-67.11,24.61-21.84,57-50.58,75.32-88.86,31.79-66.44,9.56-137.38,2-158.13-24.18-66.69-73-101.84-90.7-113.36,1.7-1.84,3.71-3.93,5.86-6.13,116.57,16,184.54,83.38,193,103.32,19.43,46.11-11.33,63-12.13,196-.38,63.55,6.48,88.65-14.14,115.18-23.59,30.34-50.77,21-84.87,60.62-26.21,30.48-22,49.8-46.48,62.64-26.31,13.81-43.07-2.28-72.75,4-49.57,10.58-60.17,67.74-93,99-24.78,23.65-70.61,40.18-161,22.43-2.09-3-3.1-6-2.7-8.79C1324,2140.56,1378.69,2153.25,1420,2114.19Z" transform="translate(-455.8 -455)"/></g><path class="cls-28" d="M1818.66,1339.64s-5.88,47-23.23,57.77-45.39,24.83-48.48,28.64,107.46,15.7,162.25-11.94h0c-18-3.77-23-5.15-23-5.15a101.62,101.62,0,0,1-23.21-9.19,79,79,0,0,1-25.51-23.59l.2-26Z" transform="translate(-455.8 -455)"/><path class="cls-29" d="M1816,1356.28s11.31,15.53,29,9.06c15.88-5.79,6.4-46.81-6.2-51.49-4.2-1.56-11.91-.87-17.07,2.35-3.63,2.26-13.32,14.29-7.76,27.78-4-1.16-7.55-.11-8.43,1.88-1.12,2.52,2.27,6,3,6.73A13.46,13.46,0,0,0,1816,1356.28Z" transform="translate(-455.8 -455)"/><path class="cls-30" d="M1371.9,1547.65c57.55,53.82,96.26,61.09,121.95,55.82,29.62-6.06,36.84-27.73,88.48-74.59,47.86-43.42,95.35-86.5,124-76.78,32.35,11,41.44,89.45,16.91,150.15-31.4,77.72-134.84,168.19-244.58,138-72.78-20-126.29-87-133.94-166.7Z" transform="translate(-455.8 -455)"/><circle class="cls-31" cx="2083.5" cy="1321.21" r="29.48" transform="translate(-803.17 444.99) rotate(-22.55)"/><rect class="cls-32" x="2091.12" y="1328.46" width="34.18" height="6.84" transform="translate(-383.62 2316.68) rotate(-67.55)"/><path class="cls-33" d="M2104.85,1349l62.75,14.74a5.63,5.63,0,0,0,6.5-3.33l1.21-2.93a5.64,5.64,0,0,0-2.31-7l-55.1-33.09Z" transform="translate(-455.8 -455)"/><path class="cls-34" d="M2126.23,1357.6s-5-7.44-1.92-12.28,11-9.4,10.54-5.91,4.27,18.73,3.38,21.22S2126.29,1360.26,2126.23,1357.6Z" transform="translate(-455.8 -455)"/><path class="cls-35" d="M2129.58,1334.07c0-.22-.3-12.54,10.71-9.47s20.7,9.47,17.92,15.59-5.63,5.34-7.55,4.63S2129.58,1334.07,2129.58,1334.07Z" transform="translate(-455.8 -455)"/><path class="cls-5" d="M2208.21,2944.58a3.44,3.44,0,0,1-3.42-3.13l-62.31-673.38a3.44,3.44,0,1,1,6.85-.63l55.44,599.24V2252.85a3.44,3.44,0,0,1,6.88,0v688.29a3.43,3.43,0,0,1-3.28,3.43Z" transform="translate(-455.8 -455)"/><polygon class="cls-36" points="2447.21 1871.51 1763.65 1796.62 450.4 1856.31 1138.2 1938.67 2447.21 1871.51"/><polygon class="cls-5" points="1138.2 1938.67 2447.21 1871.51 2447.21 1903.95 1138.2 1971.11 450.4 1888.75 450.4 1856.31 1138.2 1938.67"/><path class="cls-5" d="M1598.65,3179.43h-.14a3.44,3.44,0,0,1-3.3-3.43V2418.22a3.44,3.44,0,1,1,6.87,0v669.72l52.39-670a3.44,3.44,0,0,1,6.86.54l-59.26,757.77A3.43,3.43,0,0,1,1598.65,3179.43Z" transform="translate(-455.8 -455)"/><path class="cls-5" d="M913.72,3044.82h-.14a3.45,3.45,0,0,1-3.3-3.44V2342a3.44,3.44,0,1,1,6.88,0v611.72l48.05-612a3.44,3.44,0,1,1,6.85.54l-54.91,699.42A3.45,3.45,0,0,1,913.72,3044.82Z" transform="translate(-455.8 -455)"/><path class="cls-5" d="M2896.54,3044.82a3.44,3.44,0,0,1-3.43-3.15l-58.31-699.42a3.44,3.44,0,1,1,6.85-.58l51.45,617.1V2359a3.44,3.44,0,0,1,6.88,0v682.43a3.45,3.45,0,0,1-3.3,3.44Z" transform="translate(-455.8 -455)"/><path class="cls-3" d="M2614.9,2288l-488.73-3.63v10.76a5.91,5.91,0,0,0,5,5.84l138.2,21.19a22.24,22.24,0,0,0,5,.2l335.24-24.16a5.72,5.72,0,0,0,5.31-5.71Z" transform="translate(-455.8 -455)"/><path class="cls-37" d="M2437.54,2270.23l-306.31,19.68c-5.48.35-9.94-3.39-9.94-8.36V2082.42c0-5,4.46-9,9.94-9h306.31a8.15,8.15,0,0,1,8.17,8.13v180A8.81,8.81,0,0,1,2437.54,2270.23Z" transform="translate(-455.8 -455)"/><path class="cls-3" d="M2442.43,2270.23l-306.32,19.68c-5.48.35-9.94-3.39-9.94-8.36V2082.42c0-5,4.46-9,9.94-9h306.32a8.14,8.14,0,0,1,8.16,8.13v180A8.81,8.81,0,0,1,2442.43,2270.23Z" transform="translate(-455.8 -455)"/><path class="cls-38" d="M2432.89,2257.54l-285.3,17.1c-4.47.26-8.09-2.81-8.09-6.87V2093.43c0-4.06,3.62-7.36,8.09-7.38l285.3-1.07a6.68,6.68,0,0,1,6.73,6.67v158.79A7.22,7.22,0,0,1,2432.89,2257.54Z" transform="translate(-455.8 -455)"/><path class="cls-36" d="M2300.09,2078.87a3.53,3.53,0,1,1-3.53-3.35A3.46,3.46,0,0,1,2300.09,2078.87Z" transform="translate(-455.8 -455)"/><path class="cls-39" d="M2369.87,2215.71c-23.74-11.56-42.4,3.09-60.41-11.37-10.92-8.76-5.56-15.3-19-28.39-14.88-14.51-24.57-9.63-39.52-22.69-18.91-16.5-9.45-29.34-25.74-41.2-19.76-14.37-41.07-1.07-59.89-14.85-8.11-5.95-12.56-14.6-14.89-23.79H2132a5.59,5.59,0,0,0-5.85,5.29v206.55c0,2.92,2.62,5.12,5.85,4.92L2445.8,2270a5.14,5.14,0,0,0,3.78-2.09c-23-.76-37.08-7.73-46.1-14.94C2385.84,2238.88,2388.9,2225,2369.87,2215.71Z" transform="translate(-455.8 -455)"/><path class="cls-3" d="M2454.64,2269.68l-328.47,20.72,143.22,22a22.24,22.24,0,0,0,5,.19L2614.9,2288l-155-18.19A28.45,28.45,0,0,0,2454.64,2269.68Z" transform="translate(-455.8 -455)"/><polygon class="cls-40" points="1718.3 1835.58 1991.75 1818.07 2076.39 1827.92 1805.29 1846.63 1718.3 1835.58"/><path class="cls-41" d="M2516.85,2917.07s-71.84,5-72.9,9.68,48.76,22.82,66.17,23.5,31.73-4.47,30.15-11.84-7.67-25.92-7.67-25.92Z" transform="translate(-455.8 -455)"/><path class="cls-42" d="M2513.46,2885.15l-1.28,33.9s10.93,6.17,19.6,2.63l9.65-35.76Z" transform="translate(-455.8 -455)"/><path class="cls-43" d="M2315.93,2903.39s-71.84,5-72.9,9.69,48.76,22.82,66.17,23.5,31.73-4.47,30.15-11.84-7.67-25.92-7.67-25.92Z" transform="translate(-455.8 -455)"/><path class="cls-44" d="M2312.53,2871.47l-1.27,33.91s10.93,6.17,19.6,2.62l9.65-35.75Z" transform="translate(-455.8 -455)"/><path class="cls-45" d="M2505.82,2889.94l40.27,4.47c18.13-20.09,45.2-55.14,59.67-104.41,27.89-95-12.5-163.44,13.42-180.48,36.7-24.11,116.22,114.71,243.88,111.15,52.37-1.47,120.74-27.12,147-83,4-8.43,23.45-52.58,4.48-94-19.59-42.73-116.78-61.32-310.35-96.78-83.09-15.21-125-22.8-141.91-14.75C2442.82,2489.22,2492.64,2811.72,2505.82,2889.94Z" transform="translate(-455.8 -455)"/><path class="cls-46" d="M2300.86,2890.51l41.65,7.25c16.87-24.84,42.39-63.77,70.94-113.15,59.5-103,58.41-123.87,85.91-137.12,58.2-28,102.17,47.72,246.11,68.62,47.08,6.83,151.61,22,193.9-34.31,17.15-22.83,27-61.31,13.43-94-24.33-58.54-104.46-51.51-368.42-102.92-102.94-20-117-23.62-141.91-14.75C2303.22,2519.67,2300.5,2822.88,2300.86,2890.51Z" transform="translate(-455.8 -455)"/><path class="cls-47" d="M2589.23,2084.3c13.71-33.51,43.12-52.78,58.37-62.78a127.23,127.23,0,0,1,21.85-11.67c55.24-22.56,110.39-21,120.22-20.27,23.86,1.79,82.78,6.2,126.43,44,21.13,18.31,38,43.87,62.65,187.93,34.35,200.93,6.47,180.33,33.56,261.77,14.34,43.1,36.67,92.54,13.05,124.12-7.63,10.2-18.53,13.13-40.75,23.12-83,37.35-157.42,30.92-202.64,26.44-49.77-4.93-74.92-7.75-88.11-25.33-21.08-28.09.62-63.78,4.4-125.55,2.72-44.35-7.36-79.5-27.53-149.78C2623.85,2192.93,2563,2148.5,2589.23,2084.3Z" transform="translate(-455.8 -455)"/><path class="cls-48" d="M2355.36,2284.38l-53-10.2a32.2,32.2,0,0,0-11.54-.12L2244.9,2282s29.83,12,55.19,8.24,53.06,10.5,53.06,10.5Z" transform="translate(-455.8 -455)"/><path class="cls-49" d="M2706.56,1952.44c-8.92-13.48,4.43-39.4,9.71-49.66.18-.35.41-.82.91-1.73,8.11-15,10.19-17,14.06-19.61l5.38-3.32.64-.24c3.46-1.23,15.22-1.58,17.61-1.07,7.61,1.62,15.72,32.65,13.41,76.51.31,1.68.62,3.36.91,5.06q1.8,10.39,2.89,20.36c.71,6.35,9.71,6.2,16.09,5.8,25.88-1.65,38.54.55,39.65,4.4,2.06,7.22-28.64,30.84-66.55,36.15-50.87.38-92.25-5-87.8-13,2-3.56,41.39-13.86,52.47-24.06,10.15-9.35,9.33-19,10.16-25.91C2730.86,1962.35,2713.36,1962.72,2706.56,1952.44Z" transform="translate(-455.8 -455)"/><path class="cls-3" d="M2720.84,1865.66c-4.19,9.23,6,27.75,9.71,30.44a22.49,22.49,0,0,1,4.92,5.38,6.45,6.45,0,0,1,.77,1.6c3,8.57-10.63,18.64-8,22.48,1.91,2.78,11.16-.94,12.26,1.46s-6.65,6.94-5.47,9.65c.89,2,5.62.17,8.6,3.31,2.31,2.42,2.58,5.85,2.63,7.56.37,12.18-27.24,56.15-33,76-6.1,21,4.81,41.07,44.45,96.41,56.38,78.72,84.57,118.08,100.24,129.33,76.6,55,166.66,48.25,203.6,42.51,44.37-6.89,136-21.13,165.56-91.73,33.94-81.15-32.88-192.2-101.42-211.06-31.35-8.62-48,4.48-88.75-9.69-45-15.65-39.52-43.32-81.14-59.65-55.52-21.8-91.35,17.16-129.17-11.2-20.59-15.44-17.19-32.39-42.51-44.75C2759.14,1851.49,2726.32,1853.57,2720.84,1865.66Z" transform="translate(-455.8 -455)"/><path class="cls-50" d="M2733.12,1922.36c3.33-4.57,9.18-.27,9.22,5.65s-5.71,12.08-11.27,10.91S2728.64,1928.52,2733.12,1922.36Z" transform="translate(-455.8 -455)"/><path class="cls-51" d="M2824.92,2598.62c-14.64-29.15,21.23-67.9-2.21-112.34-19.9-37.74-56.06-29.28-72.68-63.88-20.08-41.77,23.59-73,22-136.56-1.87-76-67.25-152-105.72-145.37-24.9,4.31-28.1,41.45-45.61,82.11,15.5,34,33.61,76.57,50,133.75,20.17,70.28,30.25,105.43,27.53,149.77-3.78,61.78-25.48,97.47-4.4,125.56,13.19,17.58,38.34,20.4,88.11,25.33,45.22,4.47,119.64,10.91,202.64-26.43,10.5-4.73,18.37-8.27,24.79-11.77C2879.72,2638.27,2836.53,2621.74,2824.92,2598.62Z" transform="translate(-455.8 -455)"/><path class="cls-52" d="M2341.85,2299.85q2.27-10.16,4.51-20.3c101.9,18.26,146.46-2.24,168-26.2,19.76-22,11.34-33.35,43-117.29,30.11-79.95,64.28-100.5,81.49-107.93,9.62-4.15,16.25-6.9,24.23-5,36.71,9,48.85,104.63,38.55,176.21-5.8,40.32-17.18,119.4-82.05,156.94-1.19.69-3.08,1.78-5.57,3.11-8.17,4.37-40.63,20-104.56,8.45C2434,2354.29,2360.47,2311.09,2341.85,2299.85Z" transform="translate(-455.8 -455)"/><ellipse class="cls-5" cx="2357.85" cy="2602.77" rx="222.63" ry="90.86"/><path class="cls-36" d="M3036.29,3047.11c0,47.37-99.68,85.77-222.63,85.77S2591,3094.48,2591,3047.11s99.67-124.87,222.63-124.87S3036.29,2999.75,3036.29,3047.11Z" transform="translate(-455.8 -455)"/><path class="cls-53" d="M3036.29,3047.11c0-47.37-99.68-124.87-222.63-124.87a302.13,302.13,0,0,0-147.88,39c-2.75,5.77-4,11.5-3.51,16.94,2.55,26.65,46,43,71,48.44,62.83,13.61,93.51-24,145.32-22.53,32,.89,76.41,17,129.06,85.12C3025.84,3076.77,3036.29,3062.41,3036.29,3047.11Z" transform="translate(-455.8 -455)"/><path class="cls-36" d="M2825.85,2965.26a50.29,50.29,0,0,1-25,.14,16.09,16.09,0,0,1-11.95-15.65v-251h49.51v250.74A16.39,16.39,0,0,1,2825.85,2965.26Z" transform="translate(-455.8 -455)"/><path class="cls-54" d="M2825.85,2965.26a50.29,50.29,0,0,1-25,.14,16.09,16.09,0,0,1-11.95-15.65v-251h49.51v250.74A16.39,16.39,0,0,1,2825.85,2965.26Z" transform="translate(-455.8 -455)"/><path class="cls-55" d="M2552.08,2593.06l75.63-47.81c3.14-17.86,38.79-204.69,183.52-263.35,58.85-23.86,122.19-21,156.95-19.48,69.38,3.1,118.88,5.31,142.68,38.41,30.57,42.5-20.7,81-10.08,202.61,4.32,49.58,15.33,71.6,1.62,104.44-16.42,39.34-54.52,61.15-84.14,73.42-35.4,20.56-97.05,49.86-178.47,57-137.14,12-239.53-46.81-274.74-69.32a45.3,45.3,0,0,1-30.75-34A40,40,0,0,1,2552.08,2593.06Z" transform="translate(-455.8 -455)"/><path class="cls-56" d="M2586.85,2627.1c2.8-16.81,49.65-2.87,94-35.79,66.25-49.22,31.87-132.58,89.5-212.55,52.88-73.39,159.35-110.75,192.41-82.78,44,37.22-63.68,176.42,0,266.24,30.93,43.63,78.06,41.53,78.3,67.12.39,40.44-116.91,87.06-228.21,85C2693.17,2712.17,2582.42,2653.79,2586.85,2627.1Z" transform="translate(-455.8 -455)"/><path class="cls-57" d="M1367.68,2923.54c-1.18-6.49-22.16-12.37-32.55-3.67-5.16,4.32-8.71,13.08-5.73,17,1.09,1.44-3.36,4,.9,4C1344.44,2941.09,1368.85,2930,1367.68,2923.54Z" transform="translate(-455.8 -455)"/><path class="cls-58" d="M1344.73,2923.58l-21.76,1.08c7.54-13.7-1.53-51-1.53-51l23.51.69s-.58,10.82-2,26.9C1342.44,2906.77,1343.35,2915.06,1344.73,2923.58Z" transform="translate(-455.8 -455)"/><path class="cls-59" d="M1347.6,2923.25s-26-6-28.79-.83-5,18.95,11.49,18.5S1349.06,2927.62,1347.6,2923.25Z" transform="translate(-455.8 -455)"/><path class="cls-60" d="M1500.19,2950c-2.08-6.27-23.68-9.16-32.75.91-4.5,5-6.79,14.17-3.28,17.67,1.28,1.27-2.77,4.4,1.45,3.85C1479.63,2970.63,1502.25,2956.23,1500.19,2950Z" transform="translate(-455.8 -455)"/><path class="cls-61" d="M1474.66,2956l-21.38,4.2c5.5-14.65-8.82-50.25-8.82-50.25l23.35-2.69s1,10.8,1.87,26.92C1470,2939.73,1472.07,2947.81,1474.66,2956Z" transform="translate(-455.8 -455)"/><path class="cls-62" d="M1480.27,2952.52s-26.56-2.29-28.62,3.21-2.29,19.46,14,16.71S1482.33,2956.65,1480.27,2952.52Z" transform="translate(-455.8 -455)"/><path class="cls-3" d="M1366.65,2301.72l91.77-215A18.9,18.9,0,0,0,1445.5,2061l-168.1-40.82a18.88,18.88,0,0,0-22,11.22L1171,2238a18.9,18.9,0,0,0,12,25.22l160.74,49.18A18.89,18.89,0,0,0,1366.65,2301.72Z" transform="translate(-455.8 -455)"/><path class="cls-38" d="M1362.5,2291.38l85.71-200.79a17.64,17.64,0,0,0-12.06-24.08l-157-38.14a17.66,17.66,0,0,0-20.51,10.48l-78.84,193a17.65,17.65,0,0,0,11.18,23.55l150.14,45.94A17.66,17.66,0,0,0,1362.5,2291.38Z" transform="translate(-455.8 -455)"/><path class="cls-63" d="M1415.41,2232.35l2.76-25.33,14.59-27.82a26.4,26.4,0,0,0,3-12.28v-27.63L1418.17,2180s-11.57-10.46-16-12.66-3.86,6.6-.55,9.91-1.65,30.28,1.65,33l-1.1,16.52Z" transform="translate(-455.8 -455)"/><path class="cls-64" d="M1275.55,2071c-13.71-33.51-43.12-52.78-58.37-62.78-36.09-23.64-59.2-19.32-142.07-31.93-110.46-16.81-123.68-32.73-160.8-19.83-48.76,17-74.23,61.22-85.9,81.5-58.84,102.26,10,154.23-7.71,357.93-7.21,83.19-25.71,155.48,18.72,198.24,9.36,9,19.82,13.71,40.75,23.13,83,37.34,157.42,30.91,202.65,26.43,49.76-4.93,74.91-7.75,88.1-25.33,21.08-28.09-.62-63.78-4.4-125.55-2.72-44.35,7.36-79.5,27.53-149.78C1240.93,2179.64,1301.8,2135.21,1275.55,2071Z" transform="translate(-455.8 -455)"/><path class="cls-65" d="M1090.67,1916c5-17.92-3.76-34.51-5.7-38.08-8.11-15-10.19-17-14.06-19.6l-5.38-3.32s-.31-.13-.64-.24c-3.45-1.23-15.22-1.59-17.61-1.08-7.61,1.63-15.72,32.65-13.41,76.52-.31,1.67-.62,3.35-.91,5.06q-1.8,10.38-2.89,20.35c-.71,6.35-9.71,6.21-16.09,5.8-25.88-1.65-38.54.55-39.65,4.4-2.06,7.23,28.64,30.84,66.55,36.15,50.87.38,92.25-5,87.8-13-2-3.55-41.39-13.85-52.47-24.06-10.15-9.35-9.33-19-10.16-25.91C1069.12,1937.37,1087,1929.22,1090.67,1916Z" transform="translate(-455.8 -455)"/><path class="cls-3" d="M1081.31,1842.56c0,13.59-6.45,28.1-9.71,30.43a22.72,22.72,0,0,0-4.92,5.38,6.53,6.53,0,0,0-.77,1.61c-3,8.56,10.63,18.64,8,22.47-1.91,2.78-11.16-.94-12.26,1.47-1,2.26,6.65,6.94,5.47,9.64-.89,2-5.62.18-8.61,3.31-1.48,1.56-1,2.8-2.62,7.56a42.53,42.53,0,0,1-3.11,7.29c-4.69,8-18,10.9-20.56,7.7-.71-.89-.1-1.64-.82-4.62a24.1,24.1,0,0,0-2.6-6c-2.76-4.57-9.4-7.84-16.1-12.67-12.41-8.93-15.78-16.55-16.8-19.13-.36-.91-.58-1.61-.74-2.1-3.23-10-3.24-24.73,1.26-33.78,7.54-15.16,24.56-8,38.49-23,16.07-17.33,6.5-41,15.22-43.63C1059.75,1791.66,1081.4,1817.43,1081.31,1842.56Z" transform="translate(-455.8 -455)"/><path class="cls-66" d="M1069,1899.26c-3.33-4.58-9.18-.28-9.22,5.64s5.71,12.08,11.27,10.91S1073.51,1905.42,1069,1899.26Z" transform="translate(-455.8 -455)"/><path class="cls-3" d="M1066.33,1889.35l7.73,10.05s8.33,12.32,13.19,5.57c4-5.51,5-5.39,5.25-5.16,0,0,.06.11.07.11s-.59-2.74-1.17-5.14A45.34,45.34,0,0,1,1098,1909c1.66,6.26,3.45,13-.08,19.4-.2.37-4.09,7.22-11.36,8.88,0,0-2.86.65-14.93-1.47,0,0,13.2-9.57,13.4-11.85.55-6.18-8-9.52-14.4-22.2A50.72,50.72,0,0,1,1066.33,1889.35Z" transform="translate(-455.8 -455)"/><path class="cls-67" d="M1039.86,2585.33c14.64-29.15-21.23-67.9,2.21-112.34,19.9-37.74,56.06-29.28,72.68-63.87,20.08-41.78-23.59-73-22-136.57,1.87-76,67.25-152,105.72-145.37,24.9,4.31,28.1,41.45,45.61,82.11-15.5,34-33.6,76.57-50,133.75-20.17,70.28-30.25,105.43-27.53,149.78,3.78,61.77,25.48,97.46,4.4,125.55-13.19,17.58-38.34,20.4-88.1,25.33-45.23,4.48-119.65,10.91-202.65-26.43-10.5-4.73-18.37-8.27-24.79-11.77C985.06,2625,1028.25,2608.45,1039.86,2585.33Z" transform="translate(-455.8 -455)"/><path class="cls-68" d="M1420.37,2227.4l-24.23-10.46c-13.65,14-31.06,27.53-45.7,23.12-21.83-6.57-16.38-46.73-43-117.29-30.12-80-64.29-100.5-81.5-107.93-9.62-4.15-16.25-6.9-24.23-4.95-36.71,9-48.85,104.63-38.55,176.21,5.8,40.33,17.18,119.4,82,156.94,9.21,5.33,59.94,34.68,110.13,11.56C1398.27,2334.85,1424.77,2284.18,1420.37,2227.4Z" transform="translate(-455.8 -455)"/><path class="cls-69" d="M1359,2876.65l-40.27,4.47c-18.13-20.09-45.2-55.13-59.67-104.4-27.71-94.39,15.68-156.34-13.42-180.49-33.55-27.84-99.82,47.38-246.11,68.62-47.08,6.83-151.61,22-193.9-34.31-17.15-22.83-27-61.31-13.43-94,24.33-58.54,104.46-51.51,368.42-102.91,101.68-19.81,117.75-26.29,141.91-14.76C1422,2475.93,1372.14,2798.43,1359,2876.65Z" transform="translate(-455.8 -455)"/><path class="cls-70" d="M1478.78,2914.62l-40.27,4.47c-18.13-20.09-45.2-55.14-59.67-104.4-27.71-94.39,15.68-156.34-13.42-180.49-33.55-27.84-99.82,47.38-246.11,68.62-47.08,6.83-151.61,22-193.9-34.31-17.15-22.83-27-61.31-13.43-94,24.33-58.54,104.46-51.51,368.42-102.92,101.68-19.8,117.75-26.29,141.91-14.75C1541.78,2513.9,1492,2836.4,1478.78,2914.62Z" transform="translate(-455.8 -455)"/><ellipse class="cls-5" cx="547.64" cy="2618.92" rx="222.63" ry="90.86"/><path class="cls-36" d="M780.81,3063.27c0,47.37,99.67,85.77,222.63,85.77s222.63-38.4,222.63-85.77-99.68-124.88-222.63-124.88S780.81,3015.9,780.81,3063.27Z" transform="translate(-455.8 -455)"/><path class="cls-71" d="M780.81,3063.27c0-47.37,99.67-124.88,222.63-124.88a302.13,302.13,0,0,1,147.88,39c2.75,5.77,4,11.5,3.51,16.95-2.55,26.65-46,43-71,48.44-62.84,13.61-93.52-24-145.32-22.53-32,.88-76.42,17-129.06,85.12C791.26,3092.92,780.81,3078.57,780.81,3063.27Z" transform="translate(-455.8 -455)"/><path class="cls-36" d="M991.24,2981.42a50.57,50.57,0,0,0,25,.14,16.09,16.09,0,0,0,11.94-15.66v-251h-49.5V2965.6A16.4,16.4,0,0,0,991.24,2981.42Z" transform="translate(-455.8 -455)"/><path class="cls-72" d="M991.24,2981.42a50.57,50.57,0,0,0,25,.14,16.09,16.09,0,0,0,11.94-15.66v-251h-49.5V2965.6A16.4,16.4,0,0,0,991.24,2981.42Z" transform="translate(-455.8 -455)"/><path class="cls-73" d="M1265,2609.22l-75.63-47.81c-3.15-17.86-38.8-204.69-183.52-263.36-58.85-23.86-122.19-21-157-19.47-69.39,3.09-118.88,5.31-142.69,38.4-30.56,42.5,20.7,81.05,10.09,202.62C712,2569.17,701,2591.19,714.69,2624c16.43,39.34,54.52,61.15,84.14,73.43,35.41,20.56,97,49.85,178.47,57,137.15,12,239.53-46.81,274.74-69.32a45.33,45.33,0,0,0,30.75-34A40,40,0,0,0,1265,2609.22Z" transform="translate(-455.8 -455)"/><path class="cls-56" d="M1230.24,2643.26c-2.79-16.81-49.65-2.88-94-35.8-66.25-49.21-31.86-132.57-89.49-212.55-52.89-73.39-159.36-110.74-192.41-82.78-44,37.22,63.68,176.42,0,266.25-30.94,43.63-78.07,41.53-78.31,67.12-.38,40.43,116.91,87.06,228.21,85C1123.92,2728.32,1234.68,2669.94,1230.24,2643.26Z" transform="translate(-455.8 -455)"/><path class="cls-74" d="M2100.06,1147c5,11.34-4.79,25.13-22,30.84s-35.51,1.18-40.62-10.24,4.86-25.32,22.24-31S2095,1135.66,2100.06,1147Z" transform="translate(-455.8 -455)"/><path class="cls-75" d="M2205.77,1108.84c4.89,11.2-4.66,24.75-21.4,30.3s-34.51,1-39.48-10.3,4.73-24.94,21.62-30.43S2200.87,1097.62,2205.77,1108.84Z" transform="translate(-455.8 -455)"/><path class="cls-76" d="M2101.37,1151.92l-7.29-.13V1046.94a7.38,7.38,0,0,1,5.89-7l95.74-24.74a9.39,9.39,0,0,1,7.49,1.3,7.54,7.54,0,0,1,3.45,6.14v88.9l-7.09-.16v-89a1.12,1.12,0,0,0-.51-.92,1.36,1.36,0,0,0-1.12-.19l-95.68,24.81a1.09,1.09,0,0,0-.88,1Z" transform="translate(-455.8 -455)"/><polygon class="cls-77" points="1642.99 618.73 1640.86 612.54 1746.26 587.05 1748.34 593.16 1642.99 618.73"/><path class="cls-78" d="M1802.44,1089.91c5,11.27-4.76,25-21.88,30.67s-35.31,1.17-40.39-10.19,4.84-25.17,22.11-30.8S1797.43,1078.62,1802.44,1089.91Z" transform="translate(-455.8 -455)"/><path class="cls-79" d="M1801.88,983.46a1.56,1.56,0,0,1,1.3.33,1.59,1.59,0,0,1,.57,1.22v109.78l-8.2-.14V990.4C1795.55,987.15,1798.38,984.36,1801.88,983.46Z" transform="translate(-455.8 -455)"/><path class="cls-80" d="M2010.88,944.19c6.25,14.09-6,31.23-27.35,38.34S1939.4,984,1933,969.8s6-31.47,27.65-38.51S2004.62,930.09,2010.88,944.19Z" transform="translate(-455.8 -455)"/><path class="cls-81" d="M2010.17,811.15a2,2,0,0,1,2.34,1.93V950.3l-10.25-.18V819.83C2002.26,815.76,2005.8,812.27,2010.17,811.15Z" transform="translate(-455.8 -455)"/><path class="cls-82" d="M2015.55,813.51s.86,1.4,2.38,3.84c.38.61.8,1.28,1.25,2s1,1.34,1.47,2.08a58.35,58.35,0,0,0,3.69,5l2.26,2.78,2.63,2.73a71,71,0,0,0,6,5.5c2.34,1.54,4.62,3.46,7.33,4.75,1.33.66,2.6,1.53,4,2.07l4.26,1.73c3,1.16,6.14,2.12,9.31,3.4a44.36,44.36,0,0,1,9.1,4.7,48,48,0,0,1,3.85,3.36c1,1.31,2,2.68,2.89,4,.66,1.41,1.24,2.81,1.81,4.14a26.14,26.14,0,0,1,1,4,40.35,40.35,0,0,1,1,6.84,36.33,36.33,0,0,1,.13,5.4,18.41,18.41,0,0,1-.41,3.49c-.14.8-.21,1.23-.21,1.23a1.12,1.12,0,0,1-2.23-.24V886s0-.39.06-1.11a17.17,17.17,0,0,0,0-3.13,35.47,35.47,0,0,0-.66-4.91,39.05,39.05,0,0,0-1.65-6.28,24.94,24.94,0,0,0-1.26-3.33c-.59-1-1.2-2.11-1.83-3.2l-2.54-2.79c-1.1-.72-2.06-1.58-3.24-2.24a39.27,39.27,0,0,0-8.12-3.09c-2.93-.83-6.15-1.45-9.39-2.3l-5-1.44c-1.69-.45-3.25-1.25-4.88-1.86-3.28-1.18-6.17-3-9.12-4.6a82.27,82.27,0,0,1-7.73-5.6l-3.39-2.84-2.92-2.88a69.83,69.83,0,0,1-4.93-5.31l-2-2.3-1.47-1.87-2.78-3.55a6.85,6.85,0,1,1,10.76-8.47C2015.27,813.09,2015.42,813.31,2015.55,813.51Z" transform="translate(-455.8 -455)"/></g></g></svg>